<svg id="Gradient" height="512" viewBox="0 0 512 512" width="512" xmlns="http://www.w3.org/2000/svg" xmlns:xlink="http://www.w3.org/1999/xlink"><linearGradient id="linear-gradient" gradientUnits="userSpaceOnUse" x1="256.214" x2="256.214" y1="496" y2="16"><stop offset="0" stop-color="#12c2e9"/><stop offset=".5" stop-color="#c471ed"/><stop offset="1" stop-color="#f64f59"/></linearGradient><path d="m303.006 184a8 8 0 1 1 -8-8 8 8 0 0 1 8 8zm60.136-44.447c-7.108-5.7-15.749-6.691-23.714-2.708-9.3 4.65-14.422 12.518-14.422 22.155a30.348 30.348 0 0 0 2.845 12.578 8 8 0 1 0 14.31-7.156 14.627 14.627 0 0 1 -1.155-5.422c0-2.354.634-5.373 5.578-7.845 1.563-.781 3.722-1.387 6.546.878 6.466 5.187 10.642 19.915 6.115 38.027a8 8 0 1 0 15.522 3.88c5.613-22.45.941-44.307-11.625-54.387zm30.583 314.836c-25.367 26.444-55.154 41.611-81.725 41.611-35.409 0-64.529-20.352-82.723-37.426a23.94 23.94 0 0 0 -31.673-.83l-13.258 11.048a23.884 23.884 0 0 1 -32.335-1.467l-41.526-41.525a27.8 27.8 0 0 1 39.315-39.315l10.51 10.515c9.285-7.715 28.113-21 47.69-21 10.9 0 20.27 4.015 27.7 8.982.077-1.288.193-2.61.363-3.974a71.816 71.816 0 0 1 8.131-24.913c-24.659-1.638-62.278-10.866-97.85-46.438-27.463-27.457-50.634-40.595-65.236-46.778-15.7-6.646-25.082-6.879-25.174-6.879a8 8 0 0 1 .066-16c1.769 0 43.977.663 101.657 58.343 37.111 37.112 76.3 42.359 97.043 42.036a149.936 149.936 0 0 1 21.938-21.642c-5.654-6.048-15.98-14.737-28.638-14.737a49.936 49.936 0 0 0 -19.592 3.967 24.975 24.975 0 0 1 -33.914-17.007 25.1 25.1 0 0 1 8.219-25.259c9.71-8.076 26.836-17.7 53.287-17.7.981 0 22.172.244 51.05 18.817l3.014-12.061c-11.88-3.205-18.172-12.071-21.049-20.326l-15.479 5.159a8 8 0 0 1 -10.119-5.059l-6.5-19.509c-9.677-2.147-30.685-8.827-44.925-28-12.956-17.445-16.947-40.476-11.86-68.452 7.309-40.2 26.464-69.311 56.934-86.533 24.682-13.954 50.025-16.037 62.934-16.037 12.8 0 46.807 0 79 25.753 39.642 31.713 61.509 90.226 65 173.914 4.254 102.259-20.7 187.039-70.275 238.722zm54.282-238.056c-3.286-78.859-23.138-133.393-59-162.086-27.814-22.247-57.74-22.247-69.007-22.247-11.338 0-33.566 1.814-55.063 13.964-26.14 14.775-42.647 40.165-49.066 75.467-4.263 23.444-1.247 42.3 8.963 56.05 14.535 19.57 38.833 22.542 39.077 22.57a8 8 0 0 1 6.684 5.419l5.47 16.411 16.411-5.47a8 8 0 0 1 10.524 7.258c.153 2.677 1.707 16.331 17 16.331a8 8 0 0 1 7.761 9.94l-5.789 23.16c5.323-.777 13.659-4.041 24.371-14.754 26.044-26.046 52.542-26.346 53.657-26.346a8 8 0 0 1 .053 16 47.522 47.522 0 0 0 -13.226 2.828c-10.5 3.636-20.312 9.971-29.17 18.829-27.289 27.288-47.069 18.581-49.235 17.5a7.958 7.958 0 0 1 -1.222-.755c-29.111-21.833-51.039-22.4-51.257-22.4-21.613 0-35.318 7.614-43 14a9.039 9.039 0 0 0 1.822 14.991 8.718 8.718 0 0 0 7.4.242 65.856 65.856 0 0 1 25.835-5.235c27.96 0 45.906 26.437 46.656 27.562a5.131 5.131 0 0 1 .477.813c.552.981 6.946 11.625 24.867 11.625 6.041 0 12.754-5.754 20.528-12.418 15.068-12.916 35.707-30.6 70-19.171a8 8 0 1 1 -5.06 15.178c-25.7-8.568-40.358 3.994-54.53 16.141-9.758 8.37-18.979 16.27-30.938 16.27-17.082 0-27.574-6.98-33.346-12.784-46.85 38.287-34.046 68.238-31.978 72.315 1.44 1.672 8.449 9.169 19.492 10.487 10.108 1.2 21.154-2.92 32.835-12.265a8 8 0 1 1 9.997 12.494c-15.273 12.22-30.435 17.474-45.058 15.617-19.17-2.433-29.895-16.464-30.342-17.064q-.133-.177-.256-.362c-.126-.186-14.022-20.438-33.344-20.438-16.97 0-36.319 15.633-42.343 21.657a8 8 0 0 1 -11.314 0l-15.858-15.857a11.8 11.8 0 0 0 -17.782 1.264 11.857 11.857 0 0 0 1.1 15.422l41.526 41.526a7.96 7.96 0 0 0 10.778.489l13.258-11.048a39.96 39.96 0 0 1 52.865 1.455c16.083 15.092 41.594 33.092 71.77 33.092 21.908 0 48.143-13.715 70.178-36.687 26.946-28.093 71.331-94.938 65.829-226.98z" fill="url(#linear-gradient)"/></svg>