<svg height="512" viewBox="0 0 512 512" width="512" xmlns="http://www.w3.org/2000/svg" xmlns:xlink="http://www.w3.org/1999/xlink"><linearGradient id="a" gradientUnits="userSpaceOnUse" x1="-11.531" x2="519.097" y1="523.531" y2="-7.097" data-name="New Gradient Swatch 1"><stop offset="0" stop-color="#003f8a"/><stop offset=".518" stop-color="#00d7df"/><stop offset="1" stop-color="#006df0"/></linearGradient><linearGradient id="b" x1="-11.94" x2="518.688" xlink:href="#a" y1="523.121" y2="-7.507"/><g><path d="m504 95.18a87.948 87.948 0 0 0 -146.63-65.56 248.043 248.043 0 0 0 -349.37 226.38 248 248 0 0 0 423.36 175.36 248.2 248.2 0 0 0 49.95-279.12c15.07-23.08 22.69-42.21 22.69-57.06zm-412.05-3.23a230.7 230.7 0 0 1 100.16-59.07c-14.74 12.25-28.26 28.86-40.03 49.45a285.1 285.1 0 0 0 -24.09 56.11q-33.39-3.48-66.66-8.75a233.971 233.971 0 0 1 30.62-37.74zm-39.48 52.51q35.43 5.79 71.04 9.58a401.747 401.747 0 0 0 -12.57 93.96h-86.79a230.364 230.364 0 0 1 28.32-103.54zm-4.14 215.22a230.66 230.66 0 0 1 -24.18-95.68h86.79a405.979 405.979 0 0 0 10.49 85.62q-36.3 3.9-72.46 9.92a4.556 4.556 0 0 0 -.64.14zm43.62 60.37a233.952 233.952 0 0 1 -35.49-45.51q34.455-5.61 69.05-9.27a290.851 290.851 0 0 0 26.57 64.4c11.77 20.59 25.29 37.2 40.03 49.45a230.7 230.7 0 0 1 -100.16-59.07zm156.05 67.49c-30.68-3.43-59.55-26.48-82.03-65.8a273.031 273.031 0 0 1 -24.28-58.08q53.085-4.92 106.31-5.25zm0-145.13q-55.305.345-110.52 5.57a388.37 388.37 0 0 1 -10.53-83.98h121.05zm0-94.41h-121.05a384.244 384.244 0 0 1 12.66-92.34q54.15 5.055 108.39 5.4zm0-102.93q-51.855-.36-103.73-5.06a266.408 266.408 0 0 1 21.7-49.75c22.48-39.32 51.35-62.37 82.03-65.8zm168-121.89a72.083 72.083 0 0 1 72 72c0 16.23-13.21 41.58-38.19 73.31-13.19 16.76-26.52 31.21-33.81 38.85-7.29-7.64-20.62-22.09-33.81-38.85-24.98-31.73-38.19-57.08-38.19-73.31a72.083 72.083 0 0 1 72-72zm-70.12 18.89a89.3 89.3 0 0 0 -6.71 10.24 152.013 152.013 0 0 0 -19.57-19.51 229.751 229.751 0 0 1 26.28 9.27zm-81.88-17.63c24.56 2.72 47.87 17.95 68 44.5a87.573 87.573 0 0 0 -4 26.24c0 12.59 5.47 28.24 16.31 46.77q-40.05 2.88-80.31 3.13zm0 136.63q45.12-.27 90.04-3.81 6.93 10.155 15.68 21.26c3.45 4.38 6.89 8.59 10.23 12.56a400.878 400.878 0 0 1 5.11 56.92h-121.06zm0 102.93h121.05a388.37 388.37 0 0 1 -10.53 83.98q-55.185-5.22-110.52-5.57zm0 223.54v-129.13q53.19.345 106.31 5.25a273.031 273.031 0 0 1 -24.28 58.08c-22.48 39.32-51.35 62.37-82.03 65.8zm156.05-67.49a230.7 230.7 0 0 1 -100.16 59.07c14.74-12.25 28.26-28.86 40.03-49.45a290.851 290.851 0 0 0 26.57-64.4q34.59 3.66 69.05 9.27a233.952 233.952 0 0 1 -35.49 45.51zm43.62-60.37a4.556 4.556 0 0 0 -.64-.14q-36.15-6.03-72.46-9.92a405.979 405.979 0 0 0 10.49-85.62h86.79a230.66 230.66 0 0 1 -24.18 95.68zm24.18-111.68h-86.79c-.22-11.92-.93-23.76-2.12-35.43 6.62 7.14 11.04 11.54 11.42 11.92a7.991 7.991 0 0 0 11.28 0 559.345 559.345 0 0 0 40.64-45.97q4.395-5.565 8.31-10.89a229.539 229.539 0 0 1 17.26 80.37z" fill="url(#a)"/><path d="m416 151.182a56 56 0 1 0 -56-56 56.063 56.063 0 0 0 56 56zm0-96a40 40 0 1 1 -40 40 40.045 40.045 0 0 1 40-40z" fill="url(#b)"/></g></svg>