<svg height="496pt" viewBox="0 0 496 496" width="496pt" xmlns="http://www.w3.org/2000/svg" xmlns:xlink="http://www.w3.org/1999/xlink"><linearGradient id="a"><stop offset="0" stop-color="#003f8a"/><stop offset=".518" stop-color="#00d7df"/><stop offset="1" stop-color="#006df0"/></linearGradient><linearGradient id="b" gradientUnits="userSpaceOnUse" x1="50.384" x2="537.576" xlink:href="#a" y1="521.616" y2="34.424"/><linearGradient id="c" gradientUnits="userSpaceOnUse" x1="-79.616" x2="407.576" xlink:href="#a" y1="391.616" y2="-95.576"/><linearGradient id="d" gradientUnits="userSpaceOnUse" x1="-23.616" x2="463.576" xlink:href="#a" y1="447.616" y2="-39.576"/><linearGradient id="e" gradientUnits="userSpaceOnUse" x1="32.384" x2="519.576" xlink:href="#a" y1="503.616" y2="16.424"/><path d="m488 480h-8v-320c0-4.417969-3.582031-8-8-8h-72v-56c0-2.121094-.84375-4.15625-2.34375-5.65625l-53.65625-53.65625v-28.6875c0-4.417969-3.582031-8-8-8h-176c-4.417969 0-8 3.582031-8 8v28.6875l-53.65625 53.65625c-1.5 1.5-2.34375 3.535156-2.34375 5.65625v56h-72c-4.417969 0-8 3.582031-8 8v320h-8c-4.417969 0-8 3.582031-8 8s3.582031 8 8 8h480c4.417969 0 8-3.582031 8-8s-3.582031-8-8-8zm-24-312v40h-24c-4.417969 0-8 3.582031-8 8s3.582031 8 8 8h24v40h-24c-4.417969 0-8 3.582031-8 8s3.582031 8 8 8h24v40h-24c-4.417969 0-8 3.582031-8 8s3.582031 8 8 8h24v40h-24c-4.417969 0-8 3.582031-8 8s3.582031 8 8 8h24v88h-64v-312zm-136-152v16h-160v-16zm-216 83.3125 51.3125-51.3125h169.375l51.3125 51.3125v380.6875h-80v-136c0-4.417969-3.582031-8-8-8h-96c-4.417969 0-8 3.582031-8 8v136h-80zm128 380.6875h-32v-128h32zm16-128h32v128h-32zm-224 40h24c4.417969 0 8-3.582031 8-8s-3.582031-8-8-8h-24v-40h24c4.417969 0 8-3.582031 8-8s-3.582031-8-8-8h-24v-40h24c4.417969 0 8-3.582031 8-8s-3.582031-8-8-8h-24v-40h24c4.417969 0 8-3.582031 8-8s-3.582031-8-8-8h-24v-40h64v312h-64zm0 0" fill="url(#b)"/><path d="m160 160h64c4.417969 0 8-3.582031 8-8v-64c0-4.417969-3.582031-8-8-8h-64c-4.417969 0-8 3.582031-8 8v64c0 4.417969 3.582031 8 8 8zm8-64h48v48h-48zm0 0" fill="url(#c)"/><path d="m160 272h64c4.417969 0 8-3.582031 8-8v-64c0-4.417969-3.582031-8-8-8h-64c-4.417969 0-8 3.582031-8 8v64c0 4.417969 3.582031 8 8 8zm8-64h48v48h-48zm0 0" fill="url(#d)"/><path d="m272 160h64c4.417969 0 8-3.582031 8-8v-64c0-4.417969-3.582031-8-8-8h-64c-4.417969 0-8 3.582031-8 8v64c0 4.417969 3.582031 8 8 8zm8-64h48v48h-48zm0 0" fill="url(#d)"/><path d="m272 272h64c4.417969 0 8-3.582031 8-8v-64c0-4.417969-3.582031-8-8-8h-64c-4.417969 0-8 3.582031-8 8v64c0 4.417969 3.582031 8 8 8zm8-64h48v48h-48zm0 0" fill="url(#e)"/></svg>