<svg height="474pt" viewBox="0 -80 474.25906 474" width="474pt" xmlns="http://www.w3.org/2000/svg" xmlns:xlink="http://www.w3.org/1999/xlink"><linearGradient id="a" gradientUnits="userSpaceOnUse" x1="152.081364" x2="316.073364" y1="242.426894" y2="78.434894"><stop offset="0" stop-color="#ee83ef"/><stop offset="1" stop-color="#41dfd0"/></linearGradient><path d="m4.808594 57.25 21.832031 9.457031c.074219 0 .113281.105469.191406.136719l29.363281 12.726562h.183594l58.511719 25.464844c-1.585937 3.652344-.246094 7.914063 3.144531 10l48.199219 29.601563c.320313.195312.660156.371093 1.007813.519531l14.679687 6.398438c1.476563.699218 3.152344.855468 4.734375.441406-13.457031 15.023437-32.824219 23.394531-52.992188 22.894531-2.484374-.109375-4.867187.992187-6.398437 2.953125-1.578125 1.925781-2.171875 4.476562-1.601563 6.902344l9.289063 38.878906c.859375 3.597656 4.070313 6.140625 7.769531 6.144531.484375.003907.96875-.039062 1.445313-.125l17.089843-3.121093c27.484376-4.90625 52.132813-19.925782 69.085938-42.105469l9.738281-12.625 8.632813 4.320312c.082031 5.28125-4.003906 9.6875-9.273438 10.007813-4.417968.117187-7.90625 3.796875-7.789062 8.214844.117187 4.417968 3.792968 7.902343 8.214844 7.785156h.429687c10.910156-.625 20.246094-8.042969 23.328125-18.527344l.273438.144531-1.242188 2.878907c-.25.59375-.429688 1.214843-.535156 1.851562l-10.808594 65.039062c-.601562 3.625 1.339844 7.195313 4.710938 8.65625l36.722656 15.910157c2.257812.980469 4.839844.863281 7.003906-.3125 2.160156-1.175781 3.664062-3.28125 4.066406-5.710938l9.953125-59.9375 53.601563 45.175781 65.03125 54.851563c1.441406 1.214844 3.269531 1.878906 5.160156 1.878906h.039062c.621094-.007812 1.238282-.085937 1.839844-.234375 2.46875-.574218 4.515625-2.289062 5.519532-4.613281l28.640624-66.074219c1.640626-3.796875.121094-8.21875-3.511718-10.199218l-64.097656-34.96875-13.488282-7.359376c-.648437-.359374-1.347656-.628906-2.070312-.800781-.265625-.054687-.535156 0-.800782-.0625-.460937-.082031-.925781-.121093-1.390624-.121093l-10.242188.5625-5.117188.269531-1.890624-1.152344-16.117188-9.910156c-.175781-.121094-.335938-.25-.523438-.359375l-15.949218-9.730469c2.429687-15.714844-6.097656-31.078125-20.722656-37.328125l-107.125-46.453125-58.722657-25.464844c-8.105469-3.511719-17.523437.207031-21.039062 8.3125l-54.183594-23.480469-1.671875-30.808593c-.160156-3.027344-2.019531-5.703125-4.800781-6.910157l-14.695313-6.347656c-4.050781-1.75-8.753906.109375-10.511718 4.152344l-9.535157 21.992188-14.695312-6.359376c-4.058594-1.753906-8.769531.113282-10.523438 4.167969l-9.519531 22c-1.75 4.050781.105469 8.753907 4.152344 10.511719zm212.839844 117.386719c-14.53125 19.027343-35.671876 31.917969-59.246094 36.117187l-9.65625 1.761719-5.257813-22.007813c24.878907-2.449218 47.425781-15.699218 61.671875-36.242187l20.335938 10.203125zm81.703124 27.917969c-.238281.582031-.414062 1.1875-.519531 1.808593l-9.125 54.9375-21.601562-9.363281 9.601562-57.910156.488281-1.128906 9.671876 4.847656c4 2 8.34375 3.21875 12.796874 3.59375zm54.449219-5.023438 8.753907 5.359375 4.054687 2.488281c1.386719.851563 3 1.261719 4.625 1.175782l10.773437-.589844 4.800782-.257813 9.945312 5.425781 31 16.917969-4.617187 10.695313 14.6875 6.335937 4-9.328125 14.105469 7.703125-21.449219 49.464844-13.894531-11.710937 1.296874.558593 9.558594-22.023437-14.671875-6.398438-7.800781 18.085938-47.925781-40.421875-15.945313-13.449219zm-21.253906-13.097656 7.503906 4.59375-7.714843 17.777344-12.796876-10.761719.285157-.679688c5.070312-2.546875 9.4375-6.300781 12.722656-10.929687zm-121.015625-81.085938 99.789062 43.289063c5.722657 2.371093 9.878907 7.441406 11.082032 13.519531l-114.058594-49.472656zm-9.554688 22.015625 116.800782 50.65625c-5.578125 7.28125-15.550782 9.5625-23.734375 5.421875l-96.402344-48.34375zm-56.503906-50.664062 51.375 22.28125-3.199218 7.335937-51.382813-22.273437zm-9.550781 22.023437 51.375 22.273438-6.359375 14.679687-6.824219-2.953125-41.800781-25.6875zm-62.886719-36 51.390625 22.265625-3.199219 7.320313-51.386718-22.257813zm-16.617187-42.085937 2.808593 1.214843.96875 17.894532-10.152343-4.398438zm-12.746094 29.398437 14.679687 6.359375-3.199218 7.289063-14.679688-6.402344zm-21.992187-9.601562 7.34375 3.203125-3.199219 7.335937-7.328125-3.203125zm0 0" fill="url(#a)"/></svg>