<svg height="495pt" viewBox="0 0 495.984 495" width="495pt" xmlns="http://www.w3.org/2000/svg" xmlns:xlink="http://www.w3.org/1999/xlink"><linearGradient id="a" gradientTransform="matrix(8 0 0 -8 -8.008 504.476)" gradientUnits="userSpaceOnUse" x1="32" x2="32" y1="1.0015" y2="62.9985"><stop offset="0" stop-color="#9f2fff"/><stop offset="1" stop-color="#0bb1d3"/></linearGradient><path d="m488.703125 424.042969c-6.0625-12.023438-11.304687-24.648438-15.808594-38.160157-6.679687-20.023437-11.140625-40.847656-13.261719-61.902343l-.089843-.816407c-2.480469-24.503906-11.007813-48.296874-24.671875-68.800781l-5.695313-8.527343c-15.40625-23.121094-36.289062-42.671876-60.542969-56.640626l-81.417968-44.320312c15.457031-11.117188 24.785156-28.886719 24.785156-48.390625h-16c0 16.6875-9.273438 31.6875-24.199219 39.160156l-.808593.40625-185.28125-100.847656c-10.558594-5.75-19.671876-14.078125-26.742188-24.679687-4.183594-6.28125-11.191406-10.03125-18.746094-10.03125-7.871094 0-15.269531 4.191406-19.320312 10.945312l-17.972656 29.957031c-1.914063 3.195313-2.929688 6.839844-2.929688 10.570313 0 11.320312 9.207031 20.527344 20.527344 20.527344 11.503906 0 23.015625 2.71875 33.304687 7.863281l35.566407 17.785156c4.082031 2.023437 6.601562 6.113281 6.601562 10.664063 0 10.101562 5.480469 19.4375 14.289062 24.367187l57.503907 32.160156c1.445312.71875 2.640625 1.910157 3.359375 3.351563l11.085937 22.167968c2.546875 5.097657 6.851563 9.089844 12.121094 11.25l44 18-3.6875 11.078126c-1.777344 5.296874-2.671875 10.824218-2.671875 16.433593 0 18.132813 9.664062 35.199219 25.199219 44.519531l1.433593.855469c12.527344 7.511719 26.871094 11.488281 41.488282 11.488281 9.800781 0 19.007812-3.816406 25.957031-10.761718l.800781-.808594c4.800782-4.796875 12.679688-5.773438 18.503906-2.277344 20.761719 12.464844 37.152344 31.695313 46.136719 54.167969l.335938.839844c-.167969 8.128906-.785157 16.289062-2.046875 24.3125l-.601563 3.832031c-2.222656 14.191406-7.09375 27.628906-14.488281 39.933594l-10.773438 17.960937c-2.585937 4.296875-3.953124 9.222657-3.953124 14.238281 0 9.289063 4.609374 17.90625 12.335937 23.050782l26.886719 17.925781c9.394531 6.257813 20.320312 9.570313 31.601562 9.570313 12.871094 0 25.511719-4.433594 35.582032-12.488282l18.210937-14.570312c7.222656-5.789063 11.375-14.421875 11.375-23.671875 0-4.6875-1.113281-9.382813-3.199219-13.550781zm-98.847656-199.558594h-12.945313c-9.894531 0-19.847656-2.222656-28.796875-6.441406l-1.609375-.75 14.199219-14.191407.113281.0625c10.414063 5.992188 20.152344 13.191407 29.039063 21.320313zm-156.335938-90.617187 19.289063 10.496093-10.976563 10.96875c-3.96875-6.574219-6.753906-13.839843-8.3125-21.464843zm33.9375 18.472656 16.429688 8.945312-17.75 17.75c-5.320313-3.046875-10.113281-6.75-14.34375-11.03125zm31.085938 16.921875 16.433593 8.941406-16.488281 16.488281-17.257812-8.121094zm31.074219 16.917969 16.429687 8.945312-14.933594 14.925781-17.257812-8.117187zm-309.089844-129.695313c-2.496094 0-4.527344-2.03125-4.527344-4.527344 0-.816406.222656-1.625.648438-2.335937l17.976562-29.96875c1.167969-1.953125 3.320312-3.175782 5.597656-3.175782 2.183594 0 4.21875 1.085938 5.824219 3.488282 7.367187 11.054687 17.273437 20.296875 28.632813 27.160156l-11.886719 19.808594-1.808594-.90625c-12.488281-6.238282-26.488281-9.542969-40.457031-9.542969zm333.082031 220.429687c-11.984375-7.175781-28.167969-5.183593-38.066406 4.707032l-.800781.800781c-3.902344 3.910156-9.109376 6.0625-14.628907 6.0625-11.714843 0-23.203125-3.183594-33.242187-9.199219l-1.429688-.855468c-10.753906-6.457032-17.441406-18.265626-17.441406-30.816407 0-3.882812.617188-7.699219 1.847656-11.359375l3.359375-10.082031 34.3125 14.03125c-1.359375 10.039063-5.886719 19.335937-13.175781 26.625l11.3125 11.3125c8.808594-8.808594 14.65625-19.785156 17.078125-31.710937l35.402344 14.476562c16.046875 6.570312 29.625 17.648438 39.261719 32.042969l.488281.726562c1.359375 2.023438 2.59375 4.121094 3.761719 6.238281-8.207032-8.910156-17.601563-16.734374-28.039063-23zm24.054687 163.011719 10.777344-17.953125c8.453125-14.089844 14.03125-29.457031 16.574219-45.6875l.601563-3.832031c1.574218-10.097656 2.382812-20.402344 2.382812-30.617187v-1.496094c0-19.917969-5.824219-39.136719-16.816406-55.542969l-.488282-.730469c-11.429687-17.054687-27.511718-30.183594-46.503906-37.957031l-143.777344-58.816406c-1.679687-.679688-3.054687-1.960938-3.863281-3.59375l-11.085937-22.167969c-2.257813-4.511719-5.992188-8.246094-10.183594-10.335938l-57.175781-31.992187c-3.769531-2.101563-6.105469-6.085937-6.105469-10.398437 0-10.648438-5.910156-20.214844-15.441406-24.984376l-19.414063-9.703124 11.472657-19.121094 127.671874 69.496094c1.503907 30.664062 19.78125 58.511718 47.734376 71.671874l77.273437 36.359376c11.054687 5.207031 23.375 7.960937 35.605469 7.960937h28.273437c3.808594 4.550781 7.398438 9.296875 10.6875 14.230469l5.695313 8.527344c12.21875 18.335937 19.847656 39.609374 22.066406 61.546874l.085938.816407c2.25 22.207031 6.960937 44.191406 14.226562 66 4.519531 13.582031 10.070312 26.917969 16.488281 39.648437l4.070313 8.101563c.984375 1.976562 1.503906 4.183593 1.503906 6.402343 0 .644532-.128906 1.269532-.214844 1.902344-16.503906-3.105468-30.359375-15.289062-35.082031-31.832031-3.128906-10.9375-4.703125-22.230469-4.703125-33.585937v-29.757813h-16v29.757813c0 11.355468-1.574219 22.65625-4.703125 33.585937-5.464844 19.128906-23.113281 32.496094-42.984375 32.632813-.183594-.824219-.3125-1.65625-.3125-2.519532 0-2.121094.574219-4.210937 1.664062-6.015625zm78.761719 31.574219c-13.59375 10.871094-33.875 11.726562-48.320312 2.105469l-16.90625-11.273438c18.128906-4.726562 33.328125-17.566406 40.800781-35.007812 6.960938 16.238281 20.566406 28.625 37.0625 34.0625zm-32.425781-23.015625h16v16h-16zm0 0" fill="url(#a)"/></svg>