<svg id="GD001" height="512" viewBox="0 0 512 512" width="512" xmlns="http://www.w3.org/2000/svg" xmlns:xlink="http://www.w3.org/1999/xlink"><linearGradient id="New_Gradient_Swatch_2" gradientUnits="userSpaceOnUse" x1="115.463" x2="115.463" y1="-16.433" y2="504.275"><stop offset="0" stop-color="#fc5c7d"/><stop offset=".129" stop-color="#f35e85"/><stop offset=".343" stop-color="#d9659b"/><stop offset=".616" stop-color="#b070bf"/><stop offset=".934" stop-color="#777ff0"/><stop offset="1" stop-color="#6a82fb"/></linearGradient><linearGradient id="New_Gradient_Swatch_2-2" x1="32.893" x2="32.893" xlink:href="#New_Gradient_Swatch_2" y1="-16.433" y2="504.275"/><linearGradient id="New_Gradient_Swatch_2-3" x1="232" x2="232" xlink:href="#New_Gradient_Swatch_2" y1="-16.433" y2="504.275"/><linearGradient id="New_Gradient_Swatch_2-4" x1="412" x2="412" xlink:href="#New_Gradient_Swatch_2" y1="-16.433" y2="504.275"/><linearGradient id="New_Gradient_Swatch_2-5" x1="144" x2="144" xlink:href="#New_Gradient_Swatch_2" y1="-16.433" y2="504.275"/><linearGradient id="New_Gradient_Swatch_2-6" x1="320" x2="320" xlink:href="#New_Gradient_Swatch_2" y1="-16.433" y2="504.275"/><linearGradient id="New_Gradient_Swatch_2-7" x1="228.186" x2="228.186" xlink:href="#New_Gradient_Swatch_2" y1="-16.433" y2="504.275"/><path d="m193.329 227.222-2.659-15.778a247.721 247.721 0 0 0 -153.07 90.728l12.537 9.941a231.746 231.746 0 0 1 143.192-84.891z" fill="url(#New_Gradient_Swatch_2)"/><path d="m43.487 320.916-12.987-9.338c-2.836 3.945-5.594 8.03-8.2 12.141l13.519 8.558c2.434-3.846 5.014-7.669 7.668-11.361z" fill="url(#New_Gradient_Swatch_2-2)"/><path d="m240 240.161v-40.161h40a8 8 0 0 0 8-8v-40a8 8 0 0 0 -8-8h-40v-8h-16v104.161a215.977 215.977 0 0 0 -208 215.839v32a8 8 0 0 0 8 8h416a8 8 0 0 0 8-8v-32a215.977 215.977 0 0 0 -208-215.839zm32-80.161v24h-32v-24zm128 320h-128v-40a40 40 0 0 0 -80 0v40h-128v-24c0-92.636 75.364-168 168-168s168 75.364 168 168zm-144 0h-48v-40a24 24 0 0 1 48 0zm176 0h-16v-24c0-101.458-82.542-184-184-184s-184 82.542-184 184v24h-16v-24c0-110.28 89.72-200 200-200s200 89.72 200 200z" fill="url(#New_Gradient_Swatch_2-3)"/><path d="m488 176h-16v-48h8a8 8 0 0 0 5.657-13.657l-72-72a8 8 0 0 0 -11.314 0l-72 72a8 8 0 0 0 5.657 13.657h16v48h-16a8 8 0 0 0 -8 8v64h16v-56h72v144h16v-16h16v72h16v-200h16v288h-16v16h24a8 8 0 0 0 8-8v-304a8 8 0 0 0 -8-8zm-40 0h-16v-8a8 8 0 0 1 16 0zm-40-116.687 52.687 52.687h-105.374zm-40 116.687v-48h88v22.131a23.984 23.984 0 0 0 -40 17.869v8zm64 80h16v16h-16zm0-16v-16h16v16zm0 64v-16h16v16zm16-96h-16v-16h16z" fill="url(#New_Gradient_Swatch_2-4)"/><path d="m160 408h-32a8 8 0 0 0 -8 8v32a8 8 0 0 0 8 8h32a8 8 0 0 0 8-8v-32a8 8 0 0 0 -8-8zm-8 32h-16v-16h16z" fill="url(#New_Gradient_Swatch_2-5)"/><path d="m336 408h-32a8 8 0 0 0 -8 8v32a8 8 0 0 0 8 8h32a8 8 0 0 0 8-8v-32a8 8 0 0 0 -8-8zm-8 32h-16v-16h16z" fill="url(#New_Gradient_Swatch_2-6)"/><path d="m294.06 320.239-32 8a8 8 0 0 0 -4.716 3.323l-13.625 20.438h-23.438l-13.625-20.438a8 8 0 0 0 -5.087-3.407l-40-8-3.138 15.69 36.751 7.349 14.162 21.244a8 8 0 0 0 6.656 3.562h32a8 8 0 0 0 6.656-3.562l14.285-21.427 29-7.25z" fill="url(#New_Gradient_Swatch_2-7)"/><path d="m224 312h16v16h-16z" fill="url(#New_Gradient_Swatch_2-3)"/></svg>