<svg id="Layer_1" enable-background="new 0 0 128 128" height="512" viewBox="0 0 128 128" width="512" xmlns="http://www.w3.org/2000/svg" xmlns:xlink="http://www.w3.org/1999/xlink"><linearGradient id="SVGID_1_" gradientTransform="matrix(1 0 0 -1 0 127.89)" gradientUnits="userSpaceOnUse" x1="117.284" x2="14.965" y1="14.849" y2="117.168"><stop offset="0" stop-color="#3ea7c4"/><stop offset="1" stop-color="#bddc0b"/></linearGradient><path d="m122.7 5.3c-.5-.5-1.2-.6-1.8-.4l-17.6 6.3c-1.4.5-1.6 2.5-.2 3.2l5.3 2.7-18.7 18.7c-1.1-1.1-2.1-2.3-3-3.5-1.1-1.5-2.9-2.2-4.7-1.8-2.2-4.2-3-9-8.8-14.5-7.6-7.6-19.4-4.8-31-.2-11 4.3-15.2 1-23.1-6.8-.7-.7-1.8-.7-2.5 0-3.1 3.1-3 8.2.3 11.1 1 .9 2.1 1.7 3.2 2.6l17.7 65-7.2 7.2-6.6-.9c-1-.1-1.8.5-2 1.5-.1 1 .6 1.9 1.6 2l4 .5-1.5 1.5-6.7-.8c-1-.1-1.8.6-1.9 1.5s.6 1.8 1.5 1.9l4 .5-1.5 1.5-6.7-.8c-.5-.1-1.1.1-1.4.5l-8 8c-1 1-.4 2.8 1 3l6.2.7.7 6.2c.2 1.5 2 2.1 3 1l8-8c.4-.4.6-.9.5-1.4l-.8-6.7 1.5-1.5.5 4c.1.9.8 1.5 1.7 1.5 1 0 1.9-.9 1.7-2l-.8-6.7 1.5-1.5.5 4c.1.9.8 1.5 1.7 1.5 1.1 0 1.9-.9 1.7-2l-.8-6.7 7.2-7.2c.1 0 64.9 17.7 65 17.7.8 1.1 1.6 2.1 2.5 3.1 2.9 3.3 8 3.5 11.1.4.7-.7.7-1.9-.1-2.5-7-7-9.9-10.9-8.1-18.6.2-.9-.3-1.9-1.3-2.1s-1.9.4-2.1 1.3c-2.1 9 1.4 14 7.6 20.4-1.5.6-3.4.1-4.5-1.2-5.9-6.8-8.4-13-3.9-25 5-13.3 5.3-20.4 1.1-24.6-4.9-5.2-8.5-5.2-13.9-8.2l1.8-1.8c4.9 2.6 8.9 3 13.9 8.3 4.1 4.1 4.7 10.1 2 19.6-.3.9.3 1.9 1.2 2.2s1.9-.3 2.2-1.2c1.9-6.7 3.7-16.4-2.9-23.1-5.5-5.8-10-6.5-14.5-8.8.4-1.8-.3-3.6-1.8-4.7-1.2-.9-2.4-1.9-3.5-3l18.7-18.7 2.7 5.3c.7 1.3 2.7 1.3 3.2-.2l1.8-5c.3-.9-.1-1.9-1.1-2.2-.9-.3-1.9.1-2.2 1.1l-.4 1.2-2-3.9c-.1-.2-.4-.6-.8-.8l-3.9-2 10.3-3.7-.1.3c-.3.9.1 1.9 1.1 2.2.9.3 1.9-.1 2.2-1.1l1.3-3.8c.4-.5.2-1.2-.3-1.6zm-98.2 19.9c6.7 3.1 14.1 2.1 21.1-.5.9-.3 1.7-.6 2.5-.9.9-.3 1.4-1.3 1.1-2.2-.3-1-1.4-1.5-2.3-1.1-11.9 4.4-18.3 5.2-27.7-3-1.3-1.1-1.7-2.9-1.1-4.4 7.6 7.4 13.3 10.8 25.3 6.1 12.1-4.8 21.4-6.4 27.3-.6 5.3 5 5.7 9 8.3 13.8l-1.8 1.8c-3.1-5.5-3-9.1-8.2-13.9-3.4-3.4-8.6-3.3-13.3-2.3-.9.2-1.6 1.1-1.4 2.1.2.9 1.1 1.5 2 1.4 5-1 8.1-.6 10.1 1.4 5 4.6 4.3 7.7 8.2 14.1-1.1 1.7-1 3.9.2 5.5 1.1 1.4 2.4 2.9 3.9 4.4l-38 38zm-8.2 92.5-.5-4c-.1-.8-.7-1.4-1.5-1.5l-4-.5 4.8-4.8 5.4.6.6 5.4zm89-56.2c3 3 2.4 9.3-2 20.9-3.4 9.1-3.1 15.6-.5 21.1l-59.6-16.2 38-38c1.5 1.4 3 2.7 4.4 3.9 1.6 1.3 3.8 1.3 5.5.2 6.5 3.8 9.6 3.1 14.2 8.1zm-11.6-15.6-4.3 4.3c-.4.4-1.1.5-1.6.1-3.6-2.8-7.2-6.4-10.1-10.2-.4-.5-.3-1.2.1-1.6l4.3-4.3c.5-.5 1.4-.5 1.9.1 2.6 3.4 6.2 7 9.7 9.7.5.5.6 1.4 0 1.9zm19.6 36.9c-.3 1-.7 2-1.1 3-.3.9-1.3 1.4-2.3 1-.9-.3-1.4-1.3-1-2.3s.7-1.9 1.1-2.9c.4-.9 1.4-1.3 2.3-1 .8.4 1.3 1.3 1 2.2z" fill="url(#SVGID_1_)"/></svg>