<?xml version="1.0" encoding="UTF-8"?>
<svg xmlns="http://www.w3.org/2000/svg" xmlns:xlink="http://www.w3.org/1999/xlink" id="Gradient" viewBox="0 0 512 512" width="512" height="512"><defs><linearGradient id="linear-gradient" x1="256" y1="440" x2="256" y2="72" gradientUnits="userSpaceOnUse"><stop offset="0" stop-color="#12c2e9"/><stop offset="0.5" stop-color="#c471ed"/><stop offset="1" stop-color="#f64f59"/></linearGradient></defs><path d="M463.155,268.422c-3.209-6.417-3.778-12.161-1.743-17.562,4.7-12.455,21.411-19.372,21.559-19.432a8,8,0,0,0,4.619-4.9l8-24a8,8,0,0,0-5.65-10.291l-27.585-6.9L439.663,109.7a8.008,8.008,0,0,0-.512-1.277l0,0-16-32A8,8,0,0,0,416,72H384a8,8,0,0,0-8,8v24H104V80a8,8,0,0,0-8-8H40a8,8,0,0,0-8,8v24H24a8,8,0,0,0-8,8V224a8,8,0,0,0,8,8H80v8a8,8,0,0,0,8,8H248v56a8,8,0,0,0,8,8h96.484l7.532,120.5A8,8,0,0,0,368,440H488a8,8,0,0,0,8-8C496,373.445,479.018,300.146,463.155,268.422ZM392,88h19.056l8,16H392Zm-64,32h64v16H328Zm-96,0h48v16H232ZM48,88H88v16H48Zm168,32v24a8,8,0,0,0,8,8h64a8,8,0,0,0,8-8V120h16v24a8,8,0,0,0,8,8h80a8,8,0,0,0,8-8V120h18.048l14.4,48h-251.5l-13.789-27.578a8,8,0,0,0-14.31,7.156L171.056,168H156.944l-13.789-27.578a8,8,0,0,0-14.31,7.156L139.056,168H124.944l-13.789-27.578a8,8,0,1,0-14.31,7.156L107.056,168H92.944L79.155,140.422a8,8,0,1,0-14.31,7.156L75.056,168H32V120ZM32,216V184H80v32Zm64,0h84l12,16H96Zm168,32h24a84.6,84.6,0,0,1,25.483,3.568c-12.1,9.4-26.777,12.53-27.066,12.59A8,8,0,0,0,287.991,280a8.083,8.083,0,0,0,1.576-.157c1.039-.208,23.378-4.833,39.491-20.671a50.611,50.611,0,0,1,14.678,16.237A64.535,64.535,0,0,1,351.1,296H264ZM375.516,424,368,303.7a80.809,80.809,0,0,0-10.024-35.623C348.715,251.619,329.06,232,288,232H212l-21.6-28.8A8,8,0,0,0,184,200H96V184H445.247l3.09,10.3a8,8,0,0,0,5.723,5.462l23.619,5.905L473.5,218.2c-6.793,3.41-21.43,12.208-27.025,26.927-3.686,9.693-2.889,19.94,2.368,30.455C466.423,310.734,478.56,378.3,479.88,424Z" style="fill:url(#linear-gradient)"/></svg>
