<svg height="512pt" viewBox="0 0 512 512" width="512pt" xmlns="http://www.w3.org/2000/svg" xmlns:xlink="http://www.w3.org/1999/xlink"><linearGradient id="linear0" gradientUnits="userSpaceOnUse" x1="0" x2="512" y1="256" y2="256"><stop offset="0" stop-color="#80d8ff"/><stop offset="1" stop-color="#ea80fc"/></linearGradient><path d="m512 256c0 141.503906-114.515625 256-256 256-61.597656 0-119.957031-21.816406-165.878906-60.992188v28.871094c0 11.042969-8.953125 20-20 20-11.042969 0-20-8.957031-20-20v-76c0-11.046875 8.957031-20 20-20h76c11.046875 0 20 8.953125 20 20 0 11.042969-8.953125 20-20 20h-26.054688c38.109375 30.949219 85.75 48.121094 135.933594 48.121094 119.394531 0 216-96.621094 216-216 0-119.394531-96.621094-216-216-216-119.394531 0-216 96.621094-216 216 0 21.128906 3.054688 42.03125 9.082031 62.132812 3.171875 10.582032-2.832031 21.730469-13.414062 24.902344-10.578125 3.175782-21.726563-2.832031-24.898438-13.414062-7.148437-23.832032-10.769531-48.601563-10.769531-73.621094 0-141.503906 114.515625-256 256-256 141.503906 0 256 114.515625 256 256zm-221-104c-11.046875 0-20 8.953125-20 20v84c0 11.046875 8.953125 20 20 20h80v64c0 11.046875 8.953125 20 20 20s20-8.953125 20-20v-168c0-11.046875-8.953125-20-20-20s-20 8.953125-20 20v64h-60v-64c0-11.046875-8.953125-20-20-20zm-170 84c-11.046875 0-20 8.953125-20 20v84c0 11.046875 8.953125 20 20 20h100c11.046875 0 20-8.953125 20-20s-8.953125-20-20-20h-80v-44h80c11.046875 0 20-8.953125 20-20v-84c0-11.046875-8.953125-20-20-20h-100c-11.046875 0-20 8.953125-20 20s8.953125 20 20 20h80v44zm0 0" fill="url(#linear0)"/></svg>