<svg id="Layer_5" enable-background="new 0 0 62 62" height="512" viewBox="0 0 62 62" width="512" xmlns="http://www.w3.org/2000/svg" xmlns:xlink="http://www.w3.org/1999/xlink"><linearGradient id="SVGID_1_" gradientUnits="userSpaceOnUse" x1="31" x2="31" y1="62" y2="0"><stop offset="0" stop-color="#9f2fff"/><stop offset="1" stop-color="#0bb1d3"/></linearGradient><path d="m47 52c-1.654 0-3 1.346-3 3s1.346 3 3 3 3-1.346 3-3-1.346-3-3-3zm0 4c-.552 0-1-.449-1-1s.448-1 1-1 1 .449 1 1-.448 1-1 1zm-32-4c-1.654 0-3 1.346-3 3s1.346 3 3 3 3-1.346 3-3-1.346-3-3-3zm0 4c-.552 0-1-.449-1-1s.448-1 1-1 1 .449 1 1-.448 1-1 1zm41-41c0-2.757-2.243-5-5-5h-6c-2.043 0-3.798 1.235-4.573 2.995-3.149-7.703-10.679-12.995-19.427-12.995-11.579 0-21 9.42-21 21 0 5.812 2.423 11.364 6.657 15.328l-.524 3.672h-1.133c-2.757 0-5 2.243-5 5v10c0 1.654 1.346 3 3 3h5.685c1.126 2.361 3.53 4 6.315 4s5.188-1.639 6.315-4h19.37c1.126 2.361 3.53 4 6.315 4s5.188-1.639 6.315-4h5.685c1.654 0 3-1.346 3-3v-8c0-3.86-3.141-7-7-7h-9.341l-1.714-4h18.055v-18h-6zm-11-3h6c1.654 0 3 1.346 3 3v3h-12v-3c0-1.654 1.346-3 3-3zm5 10h-4c-1.103 0-2 .897-2 2h-1.63l-4.667-4h20.594l-4.667 4h-1.63c0-1.103-.897-2-2-2zm.001 4h-4.001v-2h4zm-16.276 0h-17.787c-2.907 0-5.543 1.424-7.202 3.635-1.58-2.244-2.508-4.889-2.692-7.635h3.956v-2h-3.949c.225-3.383 1.569-6.457 3.674-8.861l2.79 2.79 1.414-1.414-2.79-2.79c2.404-2.105 5.478-3.45 8.861-3.674v3.949h2v-3.953c3.365.224 6.456 1.557 8.872 3.668l-2.8 2.8 1.414 1.414 2.793-2.793c1.678 1.913 2.882 4.255 3.411 6.865h-1.69v8.02c-.093-.004-.182-.021-.275-.021zm-31.725-5c0-10.477 8.523-19 19-19 9.435 0 17.295 6.808 18.745 16h-2.028c-1.433-8.038-8.458-14-16.717-14-9.374 0-17 7.626-17 17 0 3.818 1.302 7.517 3.654 10.505-.298.699-.514 1.443-.626 2.223l-.017.122c-3.202-3.49-5.011-8.073-5.011-12.85zm2 25c1.103 0 2 .897 2 2h-4v-2zm-1 10c-.552 0-1-.449-1-1v-1h6.08c-.047.328-.08.66-.08 1s.033.672.08 1zm12 4c-2.757 0-5-2.243-5-5s2.243-5 5-5 5 2.243 5 5-2.243 5-5 5zm11-8v-10h6 5 2.648v10zm11-12h-3c0-1.103.897-2 2-2h2.275l.857 2zm-1-4c-2.206 0-4 1.794-4 4h-6v-8h7.725c1.201 0 2.284.714 2.758 1.818l.934 2.182zm-12 4h-11.807l.776-5.424c.21-1.468 1.487-2.576 2.97-2.576h8.061zm-11.96 2h11.96v10h-2.685c-1.126-2.361-3.53-4-6.315-4-1.059 0-2.059.243-2.96.666zm9.88 14c.047-.328.08-.66.08-1s-.033-.672-.08-1h18.16c-.047.328-.08.66-.08 1s.033.672.08 1zm25.08 4c-2.757 0-5-2.243-5-5s2.243-5 5-5 5 2.243 5 5-2.243 5-5 5zm12-4h-5.08c.047-.328.08-.66.08-1s-.033-.673-.08-1l6.08-.001v1.001c0 .551-.448 1-1 1zm1-9v1h-5v-1c0-.551.448-1 1-1h3.899c.066.323.101.658.101 1zm-5-5c1.627 0 3.061.793 3.974 2h-2.974c-1.654 0-3 1.346-3 3v1c0 1.103.897 2 2 2h5v1.999l-6.685.001c-1.126-2.361-3.53-4-6.315-4-2.145 0-4.066.972-5.352 2.497v-9.702l-3.328-7.765c-.789-1.841-2.593-3.03-4.595-3.03h-17.787c-2.472 0-4.6 1.845-4.95 4.292l-.938 6.566-.009 9.208c-.557.559-1.013 1.215-1.356 1.934h-6.685v-2h4c1.103 0 2-.897 2-2 0-2.206-1.794-4-4-4h-1.816c.414-1.161 1.514-2 2.816-2h2.867l1.142-7.99c.489-3.426 3.469-6.01 6.93-6.01h17.786c2.804 0 5.33 1.666 6.435 4.243l4.181 9.757zm-11.912-8-1.091-2.545c-1.112-2.595-3.35-4.453-5.997-5.144v-5.136l5.63 4.825h2.37c0 1.103.897 2 2 2h4c1.103 0 2-.897 2-2h2.37l5.63-4.826v12.826zm-16.729-18.768-3.837 3.197c-.165-.098-.339-.18-.522-.245v-6.184h-2v6.184c-1.161.414-2 1.514-2 2.816 0 1.654 1.346 3 3 3s3-1.346 3-3c0-.365-.075-.711-.195-1.036l3.836-3.196zm-5.359 6.768c-.552 0-1-.449-1-1s.448-1 1-1 1 .449 1 1-.448 1-1 1z" fill="url(#SVGID_1_)"/></svg>