<svg height="512" viewBox="0 0 512 512" width="512" xmlns="http://www.w3.org/2000/svg" xmlns:xlink="http://www.w3.org/1999/xlink"><linearGradient id="a" gradientUnits="userSpaceOnUse" x1="22.57" x2="503.078" y1="465.43" y2="-15.078" data-name="New Gradient Swatch 1"><stop offset="0" stop-color="#003f8a"/><stop offset=".518" stop-color="#00d7df"/><stop offset="1" stop-color="#006df0"/></linearGradient><linearGradient id="b" x1="-39.43" x2="441.078" xlink:href="#a" y1="403.43" y2="-77.078"/><linearGradient id="c" x1="8.57" x2="489.078" xlink:href="#a" y1="451.43" y2="-29.078"/><linearGradient id="d" x1="75.819" x2="556.327" xlink:href="#a" y1="518.679" y2="38.171"/><g><path d="m236.437 286.656a8 8 0 1 0 -8.875-13.312c-13.346 8.9-25.778 8.9-39.125 0a8 8 0 1 0 -8.875 13.312c9.3 6.2 18.87 9.3 28.438 9.3s19.135-3.099 28.437-9.3z" fill="url(#a)"/><path d="m160 192a8 8 0 0 0 -8 8v8a8 8 0 0 0 16 0v-8a8 8 0 0 0 -8-8z" fill="url(#b)"/><path d="m256 216a8 8 0 0 0 8-8v-8a8 8 0 0 0 -16 0v8a8 8 0 0 0 8 8z" fill="url(#c)"/><path d="m496 360h-32v-28a20.02 20.02 0 0 0 -20-20h-72a20 20 0 0 0 -17.31 10.03 7.96 7.96 0 0 0 -2.69 5.97v32h-32a8 8 0 0 0 -8 8v18.23l-17.95-5.98a7.977 7.977 0 0 0 -5.11-4.01l-24.94-6.24v-25.04a112.055 112.055 0 0 0 56-96.96h4a28.031 28.031 0 0 0 28-28v-24a28.031 28.031 0 0 0 -28-28h-4v-24a112 112 0 0 0 -224 0v24h-4a28.031 28.031 0 0 0 -28 28v24a28.031 28.031 0 0 0 28 28h4a111.293 111.293 0 0 0 32.8 79.2 113 113 0 0 0 23.2 17.84v24.71l-25.94 6.49a8 8 0 0 0 -5.31 4.41l-54.15 18.05a85.6 85.6 0 0 0 -58.6 81.3v8a8 8 0 0 0 8 8h480a8 8 0 0 0 8-8v-120a8 8 0 0 0 -8-8zm-176-176h4a12.01 12.01 0 0 1 12 12v24a12.01 12.01 0 0 1 -12 12h-4zm-224 48h-4a12.01 12.01 0 0 1 -12-12v-24a12.01 12.01 0 0 1 12-12h4zm178.96 157.24-22.27 40.23-31.09-15.23 35.4-29.49zm-76.05 40.25 8.63-4.32 10.06 4.93 4.28 12.84-13.88 4.63-13.78-4.6zm-30.91-57.24v-19.58a112.376 112.376 0 0 0 80-.06v18.81l-40.5 33.75zm-56-228.25a96 96 0 0 1 192 0v15.26c-31.6-5.76-57.07-43.29-57.34-43.7a8.034 8.034 0 0 0 -5.87-3.52 7.085 7.085 0 0 0 -.79-.04 8.043 8.043 0 0 0 -5.66 2.34c-16.62 16.63-86.73 35.45-122.34 43.68zm28.12 171.88a95.378 95.378 0 0 1 -28.12-67.88v-73.57c23.54-5.3 96.91-22.93 126.5-43.01 10.27 13.02 34.85 39.86 65.5 44.02v72.56a96 96 0 0 1 -163.88 67.88zm37.32 164.12h-153.44a69.609 69.609 0 0 1 47.66-66.12l53.93-17.98 27.46 48.07a8.02 8.02 0 0 0 10.53 3.19l14.82-7.42-1.96 5.63a8.006 8.006 0 0 0 5.03 10.22l.8.27zm-14.25-50.54-23-40.26 17.81-4.45 35.48 29.57zm30.57 50.54 3.81-19.04 7.9 2.63a8.011 8.011 0 0 0 5.06 0l8.17-2.72 4.3 19.13zm118.24 0h-72.6l-5.45-24.22.58-.19a8 8 0 0 0 5.06-10.12l-1.83-5.5 14.72 7.21a7.882 7.882 0 0 0 3.51.82 8.016 8.016 0 0 0 7.01-4.12l26.69-48.22 22.31 7.44zm56-148a4 4 0 0 1 4-4h72a4 4 0 0 1 4 4v4h-80zm0 20h80v8h-80zm120 128h-160v-64h56v8a8 8 0 0 0 8 8h32a8 8 0 0 0 8-8v-8h56zm-88-64v-16h16v16zm88-16h-56v-8a8 8 0 0 0 -8-8h-32a8 8 0 0 0 -8 8v8h-56v-24h160z" fill="url(#d)"/></g></svg>