<svg id="Layer_35" enable-background="new 0 0 64 64" height="512" viewBox="0 0 64 64" width="512" xmlns="http://www.w3.org/2000/svg" xmlns:xlink="http://www.w3.org/1999/xlink"><linearGradient id="SVGID_1_" gradientUnits="userSpaceOnUse" x1="32" x2="32" y1="63" y2="1"><stop offset="0" stop-color="#9f2fff"/><stop offset="1" stop-color="#0bb1d3"/></linearGradient><path d="m41 35c-6.617 0-12 5.383-12 12s5.383 12 12 12 12-5.383 12-12-5.383-12-12-12zm0 22c-5.514 0-10-4.486-10-10s4.486-10 10-10 10 4.486 10 10-4.486 10-10 10zm1.732-4.253.576 1.915c-.746.224-1.523.338-2.308.338v-2c.59 0 1.173-.085 1.732-.253zm6.268-5.747c0 2.691-1.341 5.186-3.588 6.674l-1.104-1.667c1.686-1.117 2.692-2.988 2.692-5.007 0-3.309-2.691-6-6-6v-2c4.411 0 8 3.589 8 8zm-13-26c0-3.232-1.93-6.016-4.695-7.277 1.031-.917 1.695-2.238 1.695-3.723 0-2.757-2.243-5-5-5s-5 2.243-5 5c0 1.485.664 2.806 1.695 3.723-2.765 1.261-4.695 4.045-4.695 7.277v2h16zm-11-11c0-1.654 1.346-3 3-3s3 1.346 3 3-1.346 3-3 3-3-1.346-3-3zm-3 11c0-3.309 2.691-6 6-6s6 2.691 6 6zm26-20h-32v6.239l-15.187 3.228 6.703 31.533h-1.516c-2.757 0-5 2.243-5 5s2.243 5 5 5h15v-2h4.292c1.409 7.392 7.912 13 15.708 13 8.822 0 16-7.178 16-16 0-1.547-.232-3.038-.643-4.454l6.83-32.079-15.187-3.228zm-2 2v28.811c-.65-.215-1.317-.389-2-.519v-6.292h-24v15h6.635c-.613 1.253-1.074 2.591-1.343 4h-4.292v-2h-3v-39zm-18.218 35h-5.782v-11h20v4.051c-.332-.021-.662-.051-1-.051-5.487 0-10.335 2.778-13.218 7zm-14.131 4-1.562-7.349 3.911-.831v8.18zm-1.973-17.733c.873-1.344 2.217-2.268 3.785-2.601.174-.037.356-.057.537-.077v6.097l-5.158 1.097c-.334-1.568-.036-3.172.836-4.516zm1.111-4.975c-.672-.437-1.134-1.108-1.3-1.893-.167-.784-.019-1.585.418-2.257s1.108-1.134 1.892-1.301c.76-.161 1.539.002 2.201.422v5.023c-.302.196-.616.353-.953.424-.785.166-1.586.018-2.258-.418zm-9.602-7.285 12.813-2.723v2.761c-.835-.284-1.733-.349-2.617-.16-1.306.278-2.426 1.047-3.153 2.167s-.975 2.457-.697 3.762c.277 1.307 1.048 2.427 2.168 3.154.082.053.169.092.253.14-.758.562-1.423 1.254-1.952 2.069-1.164 1.792-1.561 3.93-1.116 6.02l.414 1.958 6.7-1.425v2.045l-6.284 1.336 1.889 8.889h-2.044zm15.813 37.993h-13c-1.654 0-3-1.346-3-3s1.346-3 3-3h13zm2-2v-2h4.051c-.021.332-.051.662-.051 1s.03.668.051 1zm20 13c-7.72 0-14-6.28-14-14s6.28-14 14-14 14 6.28 14 14-6.28 14-14 14zm19.813-48.993-5.799 27.287c-1.591-2.881-4.049-5.209-7.014-6.659v-23.351zm-16.813-5.007h-6v-2h6zm0 4h-6v-2h6zm0 4h-6v-2h6zm0 4h-6v-2h6zm0 4h-6v-2h6zm14.026-7.496-5.869-1.248.416-1.956 5.869 1.248zm-.832 3.913-5.869-1.248.416-1.956 5.869 1.248zm-.832 3.913-5.868-1.248.416-1.956 5.868 1.248zm-.831 3.912-5.869-1.248.416-1.956 5.869 1.248zm-6.701 2.665.416-1.956 5.869 1.248-.416 1.956z" fill="url(#SVGID_1_)"/></svg>