<svg height="512" viewBox="0 0 128 128" width="512" xmlns="http://www.w3.org/2000/svg" xmlns:xlink="http://www.w3.org/1999/xlink"><linearGradient id="a" gradientUnits="userSpaceOnUse" x1="105.61" x2="22.595" y1="110.291" y2="27.277"><stop offset="0" stop-color="#6f2c7d"/><stop offset="1" stop-color="#f78b96"/></linearGradient><path d="m64.1 61.246a1.751 1.751 0 0 1 -1.75-1.75v-4.282a1.75 1.75 0 1 1 3.5 0v4.286a1.75 1.75 0 0 1 -1.75 1.746zm-1.75 34.247v4.281a1.75 1.75 0 1 0 3.5 0v-4.281a1.75 1.75 0 0 0 -3.5 0zm1.75-6.466a11.533 11.533 0 1 1 11.536-11.533 11.546 11.546 0 0 1 -11.536 11.533zm8.034-11.533a8.034 8.034 0 1 0 -8.034 8.033 8.043 8.043 0 0 0 8.036-8.033zm5.93-11.489 3.028-3.028a1.75 1.75 0 0 0 -2.472-2.477l-3.028 3.03a1.75 1.75 0 1 0 2.474 2.475zm-60.712 35.022v-64.487a9.731 9.731 0 0 1 9.72-9.72h2.741v-3.39a6.185 6.185 0 0 1 12.37 0v3.39h6.37v-3.39a6.18 6.18 0 0 1 12.359 0v3.39h6.38v-3.39a6.18 6.18 0 0 1 12.36 0v3.39h6.37v-3.39a6.186 6.186 0 0 1 12.371 0v3.39h2.74a9.73 9.73 0 0 1 9.719 9.72v26.713a1.75 1.75 0 1 1 -3.5 0v-15.513h-86.5v53.287a6.231 6.231 0 0 0 6.223 6.223h74.055a6.23 6.23 0 0 0 6.222-6.223v-15.5a1.75 1.75 0 0 1 3.5 0v15.5a9.733 9.733 0 0 1 -9.722 9.723h-74.055a9.734 9.734 0 0 1 -9.723-9.723zm72.17-67.317a2.686 2.686 0 0 0 5.371 0v-10.28a2.69 2.69 0 0 0 -2.681-2.68 2.688 2.688 0 0 0 -2.69 2.68zm-18.73 0a2.68 2.68 0 1 0 5.36 0v-10.28a2.68 2.68 0 1 0 -5.36 0zm-18.739 0a2.68 2.68 0 1 0 5.359 0v-10.28a2.68 2.68 0 1 0 -5.359 0zm-18.74 0a2.685 2.685 0 0 0 5.37 0v-10.28a2.658 2.658 0 0 0 -.789-1.893 2.683 2.683 0 0 0 -4.581 1.893zm-12.461 10.528h86.5v-7.7a6.226 6.226 0 0 0 -6.219-6.22h-2.74v3.39a6.186 6.186 0 0 1 -12.371 0v-3.388h-6.37v3.39a6.18 6.18 0 1 1 -12.36 0v-3.39h-6.38v3.39a6.18 6.18 0 1 1 -12.359 0v-3.39h-6.37v3.39a6.185 6.185 0 0 1 -12.37 0v-3.39h-2.741a6.227 6.227 0 0 0 -6.22 6.22zm88.248 28.362a1.75 1.75 0 0 0 -1.75 1.75v1a1.75 1.75 0 0 0 3.5 0v-1a1.749 1.749 0 0 0 -1.75-1.75zm-60.753 22.4a1.744 1.744 0 0 0 1.238-.513l3.028-3.028a1.75 1.75 0 0 0 -2.475-2.474l-3.028 3.027a1.75 1.75 0 0 0 1.237 2.988zm30.273-.513a1.749 1.749 0 0 0 2.474-2.474l-3.028-3.028a1.749 1.749 0 0 0 -2.474 2.474zm-27.244-27.969a1.751 1.751 0 0 0 1.237-2.988l-3.028-3.03a1.75 1.75 0 1 0 -2.475 2.475l3.028 3.028a1.744 1.744 0 0 0 1.238.515zm-9.554 9.226a1.75 1.75 0 0 0 0 3.5h4.278a1.75 1.75 0 0 0 0-3.5zm44.561 3.5a1.75 1.75 0 1 0 0-3.5h-4.283a1.75 1.75 0 0 0 0 3.5z" fill="url(#a)"/></svg>