<?xml version="1.0"?>
<svg xmlns="http://www.w3.org/2000/svg" xmlns:xlink="http://www.w3.org/1999/xlink" viewBox="0 0 512 512" width="512" height="512"><defs><linearGradient id="linear-gradient" x1="64.343" y1="467.657" x2="423.256" y2="108.744" gradientUnits="userSpaceOnUse"><stop offset="0" stop-color="#41dfd0"/><stop offset="1" stop-color="#ee83ef"/></linearGradient></defs><g id="gradient"><path d="M233.5,208a9.5,9.5,0,1,1,9.5-9.5A9.5,9.5,0,0,1,233.5,208Zm45,0a9.5,9.5,0,1,0-9.5-9.5A9.5,9.5,0,0,0,278.5,208ZM240,232a8,8,0,0,0,8,8h16a8,8,0,0,0,0-16H248A8,8,0,0,0,240,232Zm248,80V416a8,8,0,0,1-8,8H24a8,8,0,0,1-8-8V318.54A46.593,46.593,0,0,1,62.54,272H80V247.978A40.075,40.075,0,0,1,64.805,224H64a24,24,0,0,1,0-48v-1.376A24.039,24.039,0,0,1,48,152V112a8,8,0,0,1,11.576-7.156l21.09,10.54A43.854,43.854,0,0,0,100.2,120h26.19a40.785,40.785,0,0,1,40,48.823c-.032.153-.067.3-.107.454l-4.017,15.181A23.981,23.981,0,0,1,144,224H143.2A40.075,40.075,0,0,1,128,247.978V272h17.46A46.616,46.616,0,0,1,186.6,296.79l3.231-.539L224,282.584V261.917A55.964,55.964,0,0,1,200,216a23.986,23.986,0,0,1-16-41.869V160a72,72,0,1,1,144,0v14.131A23.986,23.986,0,0,1,312,216a55.964,55.964,0,0,1-24,45.917v20.667l34.169,13.667,8.473,1.414A40.035,40.035,0,0,1,368,272h16V256H366a22.025,22.025,0,0,1-22-22V184a64,64,0,1,1,128,0v50a22.025,22.025,0,0,1-22,22H432v16h16A40.045,40.045,0,0,1,488,312ZM360,200a8.009,8.009,0,0,0,8,8V192A8.009,8.009,0,0,0,360,200Zm88-8v16a8,8,0,0,0,0-16Zm-16,0H384v24a24,24,0,0,0,48,0Zm-32,85.578,8,12,8-12V255.2a40.154,40.154,0,0,1-16,0ZM456,234V222.624A23.889,23.889,0,0,1,448,224H447.2a39.835,39.835,0,0,1-7.217,16H450A6.006,6.006,0,0,0,456,234Zm-95.511-56.79A23.906,23.906,0,0,1,368,176h80a23.9,23.9,0,0,1,7.52,1.213,48,48,0,0,0-95.031,0ZM366,240h10.022a39.835,39.835,0,0,1-7.217-16H368a23.889,23.889,0,0,1-8-1.376V234A6.006,6.006,0,0,0,366,240Zm-48.971,71.428-16.942-6.777-4.326,17.29a8,8,0,0,1-13.418,3.716l-.152-.151-2.018,4.037L287.305,408H312V360a8,8,0,0,1,8-8h40v-9.5a27.905,27.905,0,0,0-23.394-27.618l-17.922-2.991A7.917,7.917,0,0,1,317.029,311.428ZM328,408h32V368H328ZM275.313,296l8.355,8.354,1.426-5.7L278.459,296Zm-46.981,8.354L236.687,296h-3.146l-6.635,2.654ZM244.944,320h22.112l3.21-6.42L256,299.314,241.734,313.58ZM320,192a8.009,8.009,0,0,0-8-8v16A8.009,8.009,0,0,0,320,192ZM200,168h4l21.6-28.8a8,8,0,0,1,9.649-2.511L305.7,168H312v-8a56,56,0,0,0-112,0Zm0,32V184a8,8,0,0,0,0,16Zm56,56a40.045,40.045,0,0,0,40-40V181.2l-61.425-27.3L216,178.667V216A40.045,40.045,0,0,0,256,256Zm-16,13.659V280h32V269.659a55.848,55.848,0,0,1-32,0ZM145.46,288H132.53L112,322.217V408h24V342.5a43.836,43.836,0,0,1,33.537-42.731A30.584,30.584,0,0,0,145.46,288ZM128,216V176H80v40a24,24,0,0,0,48,0Zm24-16a8.009,8.009,0,0,0-8-8v16A8.009,8.009,0,0,0,152,200ZM64,152a8.009,8.009,0,0,0,8,8h64a8,8,0,0,1,8,8v8a24.088,24.088,0,0,1,3.87.316l2.882-10.89a24.4,24.4,0,0,0,.438-4.626,24.8,24.8,0,0,0-24.8-24.8H100.2a59.919,59.919,0,0,1-26.692-6.307L64,124.941Zm0,56V192a8,8,0,0,0,0,16ZM96,255.2V280a7.981,7.981,0,0,1-2.949,6.2L104,304.45,114.948,286.2A7.983,7.983,0,0,1,112,280V255.2a40.154,40.154,0,0,1-16,0ZM32,318.54V328H56a8,8,0,0,1,8,8v72H96V322.217L75.47,288H62.54A30.574,30.574,0,0,0,32,318.54ZM32,352H48v-8H32Zm16,56V368H32v40Zm104,0h32V368H152Zm48,0H224.7l7.132-78.457-2.018-4.037-.152.151a8,8,0,0,1-13.418-3.716l-4.326-17.29-16.942,6.777a7.989,7.989,0,0,1-1.656.464L175.4,314.881A27.907,27.907,0,0,0,152,342.5V352h40a8,8,0,0,1,8,8Zm71.239,0-6.545-72H247.306l-6.545,72ZM376,408h64V352a8,8,0,0,1,1.346-4.44l3.45-5.17a19.483,19.483,0,0,0,1.492-19.053A8,8,0,0,1,453.56,312H472a24.028,24.028,0,0,0-24-24H428.281l-13.625,20.438a8,8,0,0,1-13.312,0L387.719,288H368a24.058,24.058,0,0,0-21.348,13A43.836,43.836,0,0,1,376,342.5V408Zm96,0V328h-8.069a35.381,35.381,0,0,1-5.825,23.268L456,354.424V408Z" style="fill:url(#linear-gradient)"/></g></svg>
