<svg height="486pt" viewBox="0 -61 486 486" width="486pt" xmlns="http://www.w3.org/2000/svg" xmlns:xlink="http://www.w3.org/1999/xlink"><linearGradient id="a"><stop offset="0" stop-color="#00efd1"/><stop offset="1" stop-color="#00acea"/></linearGradient><linearGradient id="b" gradientTransform="matrix(1 0 0 -1 -13 439.995001)" gradientUnits="userSpaceOnUse" x1="256" x2="256" xlink:href="#a" y1="516" y2="21.996"/><linearGradient id="c" gradientTransform="matrix(1 0 0 -1 -13 439.995001)" gradientUnits="userSpaceOnUse" x1="408" x2="408" xlink:href="#a" y1="516" y2="21.996"/><linearGradient id="d" gradientTransform="matrix(1 0 0 -1 -13 439.995001)" gradientUnits="userSpaceOnUse" x1="407" x2="407" xlink:href="#a" y1="516" y2="21.996"/><linearGradient id="e" gradientTransform="matrix(1 0 0 -1 -13 439.995001)" gradientUnits="userSpaceOnUse" x1="106" x2="106" xlink:href="#a" y1="516" y2="21.996"/><linearGradient id="f" gradientTransform="matrix(1 0 0 -1 -13 439.995001)" gradientUnits="userSpaceOnUse" x1="105" x2="105" xlink:href="#a" y1="516" y2="21.996"/><linearGradient id="g" gradientTransform="matrix(1 0 0 -1 -13 439.995001)" gradientUnits="userSpaceOnUse" x1="257.823" x2="257.823" xlink:href="#a" y1="516" y2="21.996"/><path d="m243 156.878906c29.335938-.035156 53.113281-23.808594 53.144531-53.144531v-18.457031c0-29.351563-23.792969-53.144532-53.144531-53.144532s-53.144531 23.792969-53.144531 53.144532v18.457031c.03125 29.335937 23.808593 53.109375 53.144531 53.144531zm-39.144531-71.601562c0-21.617188 17.527343-39.144532 39.144531-39.144532s39.144531 17.527344 39.144531 39.144532v18.457031c0 21.617187-17.527343 39.144531-39.144531 39.144531s-39.144531-17.527344-39.144531-39.144531zm0 0" fill="url(#b)"/><path d="m410.125 108.304688-30.199219-.105469h-.027343c-2.253907 0-4.375 1.085937-5.6875 2.921875-1.316407 1.835937-1.664063 4.191406-.941407 6.328125l7.25 21.347656c.960938 2.839844 3.628907 4.75 6.625 4.75h15.703125c2.992188 0 5.65625-1.90625 6.625-4.738281l7.246094-21.242188c.726562-2.132812.382812-4.488281-.925781-6.324218-1.308594-1.835938-3.421875-2.929688-5.675781-2.9375zm-12.28125 21.242187h-5.679688l-2.484374-7.3125 10.648437.039063zm0 0" fill="url(#c)"/><path d="m394 100.960938c23.867188-.027344 43.207031-19.367188 43.234375-43.234376v-14.492187c0-23.878906-19.355469-43.234375-43.234375-43.234375s-43.234375 19.355469-43.234375 43.234375v14.492187c.027344 23.867188 19.367187 43.207032 43.234375 43.234376zm-29.234375-57.726563c0-16.144531 13.089844-29.234375 29.234375-29.234375s29.234375 13.089844 29.234375 29.234375v14.492187c0 16.148438-13.089844 29.234376-29.234375 29.234376s-29.234375-13.085938-29.234375-29.234376zm0 0" fill="url(#d)"/><path d="m108.125 108.304688-30.199219-.105469h-.027343c-2.253907 0-4.375 1.085937-5.6875 2.921875-1.316407 1.835937-1.664063 4.191406-.941407 6.328125l7.25 21.347656c.964844 2.835937 3.628907 4.746094 6.628907 4.75h15.699218c2.996094 0 5.65625-1.90625 6.625-4.742187l7.246094-21.242188c.726562-2.132812.382812-4.484375-.925781-6.320312-1.308594-1.835938-3.417969-2.929688-5.675781-2.9375zm-12.28125 21.242187h-5.679688l-2.484374-7.3125 10.648437.039063zm0 0" fill="url(#e)"/><path d="m92 100.960938c23.867188-.027344 43.207031-19.367188 43.234375-43.234376v-14.492187c0-23.878906-19.355469-43.234375-43.234375-43.234375s-43.234375 19.355469-43.234375 43.234375v14.492187c.027344 23.867188 19.367187 43.207032 43.234375 43.234376zm-29.234375-57.726563c0-16.144531 13.089844-29.234375 29.234375-29.234375s29.234375 13.089844 29.234375 29.234375v14.492187c0 16.148438-13.089844 29.234376-29.234375 29.234376s-29.234375-13.085938-29.234375-29.234376zm0 0" fill="url(#f)"/><path d="m441 105.578125h-12c-2.941406 0-5.566406 1.835937-6.574219 4.597656l-16.5 45.230469-.425781-5.3125c-.292969-3.636719-3.328125-6.4375-6.976562-6.4375h-6.175782c-3.648437 0-6.6875 2.800781-6.976562 6.4375l-.609375 7.609375-19.269531-47.742187c-1.066407-2.648438-3.636719-4.382813-6.488282-4.382813h-12.003906c-24.839844.027344-44.972656 20.160156-45 45v16.007813h-15.285156c-3.226563 0-6.035156 2.203124-6.800782 5.335937l-17.613281 71.972656-1.253906-27.152343c-.171875-3.714844-3.222656-6.648438-6.941406-6.675782l-18.460938-.136718h-.050781c-3.742188 0-6.820312 2.941406-6.992188 6.675781l-1.484374 32.050781-21.082032-76.917969c-.832031-3.042969-3.597656-5.148437-6.75-5.148437h-15.285156v-16.011719c-.027344-24.839844-20.160156-44.972656-45-45h-12c-2.941406 0-5.566406 1.835937-6.574219 4.601563l-16.5 45.226562-.425781-5.3125c-.292969-3.636719-3.328125-6.4375-6.976562-6.4375h-6.175782c-3.648437 0-6.6875 2.800781-6.976562 6.4375l-.609375 7.609375-19.269531-47.742187c-1.070313-2.648438-3.636719-4.382813-6.492188-4.382813h-12c-24.839844.027344-44.9726562 20.160156-45 45v92c0 3.867187 3.132812 7 7 7h68.386719l-.710938 8.855469c-.203125 2.546875.996094 5.003906 3.128907 6.40625l11.925781 7.855468c2.359375 1.550782 5.425781 1.535157 7.765625-.046874l11.632812-7.851563c2.09375-1.414063 3.261719-3.84375 3.058594-6.363281l-.707031-8.855469h16.277343v89.558594c0 3.867187 3.132813 7 7 7h87.855469l-.023437.53125c-.113282 2.476562 1.085937 4.828125 3.160156 6.183593l15.289062 10c2.355469 1.539063 5.398438 1.519532 7.730469-.042968l14.917969-10c2.023438-1.355469 3.199219-3.667969 3.101562-6.101563l-.023437-.566406h84.488281c3.863282 0 7-3.136719 7-7v-89.5625h19.140625l-.710937 8.855469c-.207032 2.546875.992187 5.003906 3.128906 6.410156l11.925781 7.851562c2.359375 1.554688 5.421875 1.535157 7.765625-.046874l11.632813-7.851563c2.089843-1.414063 3.261719-3.84375 3.058593-6.359375l-.710937-8.859375h65.515625c3.867188 0 7-3.132813 7-7v-92c-.027344-24.839844-20.15625-44.972656-45-45zm-427 130v-85c.019531-17.113281 13.886719-30.980469 31-31h7.277344l27.976562 69.332031-3.746094 46.667969zm79.53125 22.855469-4.570312-3.007813 4.472656-55.71875 4.472656 55.769531zm16.824219-22.855469-3.746094-46.683594 25.289063-69.316406h7.101562c17.113281.019531 30.980469 13.886719 31 31v17.597656c-24.777344 6.089844-42.207031 28.289063-42.246094 53.800781v13.601563zm31.398437 96.558594v-110.160157c.027344-22.851562 18.542969-41.367187 41.390625-41.394531h10.800781l31.078126 113.386719-1.761719 38.167969zm103.070313 16.457031-8.066407-5.273438 5.519532-119.347656 5.089844.039063 3.300781 71.417969 1.964843 47.929687zm99.421875-16.457031h-78.0625l-1.527344-37.320313-.066406-1.394531 27.617187-112.835937h10.648438c22.847656.023437 41.363281 18.542968 41.390625 41.390624zm14-96.558594v-13.601563c-.035156-25.515624-17.46875-47.71875-42.246094-53.804687v-17.601563c.019531-17.109374 13.886719-30.976562 31-31h7.277344l27.976562 69.335938-3.746094 46.664062h-20.261718zm37.285156 22.855469-4.570312-3.007813 4.472656-55.71875 4.472656 55.773438zm76.46875-22.855469h-59.644531l-3.746094-46.683594 25.289063-69.316406h7.101562c17.113281.019531 30.980469 13.886719 31 31zm0 0" fill="url(#b)"/><path d="m264.078125 170.058594-38.460937-.136719h-.023438c-2.425781 0-4.679688 1.257813-5.953125 3.320313-1.277344 2.066406-1.390625 4.640624-.304687 6.8125l10 20c1.175781 2.355468 3.574218 3.851562 6.207031 3.871093l18.457031.132813h.050781c2.652344 0 5.078125-1.496094 6.261719-3.871094l10-20c1.082031-2.164062.96875-4.734375-.300781-6.796875s-3.511719-3.324219-5.933594-3.332031zm-14.335937 19.96875-9.804688-.074219-3-5.988281 15.800781.054687zm0 0" fill="url(#g)"/></svg>