<svg height="512" viewBox="0 0 128 128" width="512" xmlns="http://www.w3.org/2000/svg" xmlns:xlink="http://www.w3.org/1999/xlink"><linearGradient id="a" gradientUnits="userSpaceOnUse" x1="120.704" x2="27.05" y1="108.29" y2="14.636"><stop offset="0" stop-color="#ff6680"/><stop offset="1" stop-color="#ffd830"/></linearGradient><path d="m126.894 40.784-62.25-24.625a1.757 1.757 0 0 0 -1.288 0l-62.25 24.625a1.75 1.75 0 0 0 0 3.255l26.48 10.474v33.765a1.761 1.761 0 0 0 .335 1.031c.105.144 2.65 3.558 9.808 6.469a1.734 1.734 0 0 0 .658.13 1.751 1.751 0 0 0 .66-3.372 23.1 23.1 0 0 1 -7.961-4.913v-31.723l32.27 12.766a1.761 1.761 0 0 0 1.288 0l32.27-12.766v31.719c-1.704 1.754-10.067 8.917-32.914 8.917a93.293 93.293 0 0 1 -10.609-.573 1.75 1.75 0 1 0 -.4 3.477 96.864 96.864 0 0 0 11.01.6c27.944 0 35.76-10.289 36.079-10.727a1.761 1.761 0 0 0 .335-1.031v-33.769l6.756-2.672v42.1a9.937 9.937 0 1 0 11.5 0v-46.649l8.224-3.253a1.75 1.75 0 0 0 0-3.255zm-13.974 67.68a6.437 6.437 0 1 1 6.437-6.437 6.443 6.443 0 0 1 -6.437 6.437zm2.25-59.788v43.682a9.614 9.614 0 0 0 -4.5 0v-41.9l1.461-.578zm-17.149 3.024-34.021 13.454-34.02-13.454-23.473-9.289 57.493-22.743 57.493 22.743zm-33.377-26.938 40.5 16.022a1.75 1.75 0 0 1 -1.287 3.255l-39.857-15.768-35.745 14.14 35.745 14.14 12.737-5.038a1.75 1.75 0 0 1 1.287 3.255l-13.38 5.292a1.747 1.747 0 0 1 -1.288 0l-40.5-16.021a1.75 1.75 0 0 1 0-3.255l40.5-16.022a1.757 1.757 0 0 1 1.288 0zm30.072 21.521a1.75 1.75 0 0 1 -.984 2.271l-4.294 1.7a1.75 1.75 0 1 1 -1.288-3.254l4.295-1.7a1.75 1.75 0 0 1 2.271.983z" fill="url(#a)"/></svg>