<svg height="480pt" viewBox="0 -16 480 480" width="480pt" xmlns="http://www.w3.org/2000/svg" xmlns:xlink="http://www.w3.org/1999/xlink"><linearGradient id="a"><stop offset="0" stop-color="#fff200"/><stop offset="1" stop-color="#cd118c"/></linearGradient><linearGradient id="b" gradientUnits="userSpaceOnUse" x1="50" x2="530" xlink:href="#a" y1="522.00543" y2="42.00543"/><linearGradient id="c" gradientUnits="userSpaceOnUse" x1="80" x2="560" xlink:href="#a" y1="552.00543" y2="72.00543"/><linearGradient id="d" gradientUnits="userSpaceOnUse" x1="120" x2="600" xlink:href="#a" y1="592.00543" y2="112.00543"/><linearGradient id="e" gradientUnits="userSpaceOnUse" x1="40" x2="520" xlink:href="#a" y1="512.00543" y2="32.00543"/><linearGradient id="f" gradientUnits="userSpaceOnUse" x1="0" x2="480" xlink:href="#a" y1="472.00543" y2="-7.99457"/><linearGradient id="g" gradientUnits="userSpaceOnUse" x1="-40" x2="440" xlink:href="#a" y1="432.00543" y2="-47.99457"/><path d="m472 432.003906h-24v-232c0-4.417968-3.582031-8-8-8h-48v-168c-.003906-3.441406-2.207031-6.496094-5.472656-7.582031l-48-16c-2.433594-.828125-5.117188-.421875-7.199219 1.085937-2.089844 1.503907-3.328125 3.921876-3.328125 6.496094v120h-88c-4.417969 0-8 3.582032-8 8v24h-168c-4.417969 0-8 3.582032-8 8v24h-16c-4.417969 0-8 3.582032-8 8v232h-24c-4.417969 0-8 3.582032-8 8 0 4.417969 3.582031 8 8 8h464c4.417969 0 8-3.582031 8-8 0-4.417968-3.582031-8-8-8zm-128-412.894531 32 10.664063v162.230468h-32zm-96 124.894531h80v48h-80zm-176 32h160v16h-160zm-24 256v-224h384v224zm0 0" fill="url(#b)"/><path d="m384 240.003906h-48c-4.417969 0-8 3.582032-8 8v48c0 4.417969 3.582031 8 8 8h48c4.417969 0 8-3.582031 8-8v-48c0-4.417968-3.582031-8-8-8zm-8 48h-32v-32h32zm0 0" fill="url(#c)"/><path d="m384 320.003906h-48c-4.417969 0-8 3.582032-8 8v48c0 4.417969 3.582031 8 8 8h48c4.417969 0 8-3.582031 8-8v-48c0-4.417968-3.582031-8-8-8zm-8 48h-32v-32h32zm0 0" fill="url(#d)"/><path d="m304 240.003906h-48c-4.417969 0-8 3.582032-8 8v48c0 4.417969 3.582031 8 8 8h48c4.417969 0 8-3.582031 8-8v-48c0-4.417968-3.582031-8-8-8zm-8 48h-32v-32h32zm0 0" fill="url(#e)"/><path d="m304 320.003906h-48c-4.417969 0-8 3.582032-8 8v48c0 4.417969 3.582031 8 8 8h48c4.417969 0 8-3.582031 8-8v-48c0-4.417968-3.582031-8-8-8zm-8 48h-32v-32h32zm0 0" fill="url(#c)"/><path d="m224 240.003906h-48c-4.417969 0-8 3.582032-8 8v48c0 4.417969 3.582031 8 8 8h48c4.417969 0 8-3.582031 8-8v-48c0-4.417968-3.582031-8-8-8zm-8 48h-32v-32h32zm0 0" fill="url(#f)"/><path d="m224 320.003906h-48c-4.417969 0-8 3.582032-8 8v48c0 4.417969 3.582031 8 8 8h48c4.417969 0 8-3.582031 8-8v-48c0-4.417968-3.582031-8-8-8zm-8 48h-32v-32h32zm0 0" fill="url(#e)"/><path d="m144 240.003906h-48c-4.417969 0-8 3.582032-8 8v48c0 4.417969 3.582031 8 8 8h48c4.417969 0 8-3.582031 8-8v-48c0-4.417968-3.582031-8-8-8zm-8 48h-32v-32h32zm0 0" fill="url(#g)"/><path d="m144 320.003906h-48c-4.417969 0-8 3.582032-8 8v48c0 4.417969 3.582031 8 8 8h48c4.417969 0 8-3.582031 8-8v-48c0-4.417968-3.582031-8-8-8zm-8 48h-32v-32h32zm0 0" fill="url(#f)"/></svg>