<svg height="512" viewBox="0 0 64 64" width="512" xmlns="http://www.w3.org/2000/svg" xmlns:xlink="http://www.w3.org/1999/xlink"><linearGradient id="linear-gradient" gradientUnits="userSpaceOnUse" x1="-1" x2="65.189" y1="51" y2="51"><stop offset="0" stop-color="#f9a86d"/><stop offset=".503" stop-color="#f05361"/><stop offset="1" stop-color="#b72563"/></linearGradient><linearGradient id="linear-gradient-3" x2="65.189" xlink:href="#linear-gradient" y1="32" y2="32"/><linearGradient id="linear-gradient-4" x2="65.189" xlink:href="#linear-gradient" y1="31" y2="31"/><linearGradient id="linear-gradient-5" x2="65.189" xlink:href="#linear-gradient" y1="39" y2="39"/><linearGradient id="linear-gradient-6" x2="65.189" xlink:href="#linear-gradient" y1="41" y2="41"/><linearGradient id="linear-gradient-11" x2="65.189" xlink:href="#linear-gradient" y1="55" y2="55"/><linearGradient id="linear-gradient-12" x2="65.189" xlink:href="#linear-gradient" y1="57" y2="57"/><linearGradient id="linear-gradient-13" x2="65.189" xlink:href="#linear-gradient" y1="11" y2="11"/><linearGradient id="linear-gradient-14" x2="65.189" xlink:href="#linear-gradient" y1="10" y2="10"/><g id="Gradient_outline" data-name="Gradient outline"><path d="m32 54h6v-6h-6zm2-4h2v2h-2z" fill="url(#linear-gradient)"/><path d="m58 48h-6v6h6zm-2 4h-2v-2h2z" fill="url(#linear-gradient)"/><path d="m61 36h-1v-15a1 1 0 0 0 -1-1h-4a1 1 0 0 0 -1 1v15h-2v-15a1 1 0 0 0 -1-1h-4a1 1 0 0 0 -1 1v15h-2v-15a1 1 0 0 0 -1-1h-4a1 1 0 0 0 -1 1v15h-2v-12h-10v-22h-8v22h-2v-14h-6v14h-2v20h-6v18h60v-25a1 1 0 0 0 -1-1zm-53 24h-4v-14h4zm48-38h2v2h-2zm0 4h2v2h-2zm0 4h2v6h-2zm-8-8h2v2h-2zm0 4h2v2h-2zm0 4h2v6h-2zm-8-8h2v2h-2zm0 4h2v2h-2zm0 4h2v6h-2zm-20-26h4v2h-4zm0 4h4v2h-4zm0 4h4v2h-4zm0 4h4v8h-4zm-8-4h2v2h-2zm0 4h2v2h-2zm0 4h2v4h-2zm16 28h-14v-2h14zm-16-4v6h16v10h-18v-34h24v18zm36 16h-6v-8h6zm12 0h-10v-10h-10v10h-10v-14h30zm0-16h-24v-6h24z" fill="url(#linear-gradient-3)"/><path d="m32 28h-20v6h20zm-2 4h-16v-2h16z" fill="url(#linear-gradient-4)"/><path d="m32 36h-20v6h20zm-2 4h-16v-2h16z" fill="url(#linear-gradient-5)"/><g fill="url(#linear-gradient-6)"><path d="m39 40h2v2h-2z"/><path d="m43 40h2v2h-2z"/><path d="m47 40h2v2h-2z"/><path d="m51 40h2v2h-2z"/><path d="m55 40h2v2h-2z"/></g><path d="m12 58h5v-2h-3v-4h-2z" fill="url(#linear-gradient-11)"/><path d="m19 56h2v2h-2z" fill="url(#linear-gradient-12)"/><path d="m43 10h2v2h-2z" fill="url(#linear-gradient-13)"/><path d="m58.782 10.434a4.871 4.871 0 0 0 .218-1.434 4.984 4.984 0 0 0 -8.5-3.549 4.959 4.959 0 0 0 -6.378-.534 5.991 5.991 0 1 0 -5.7 9.055 4.981 4.981 0 0 0 9.167-.007 4.974 4.974 0 0 0 2.911-1.416 4.991 4.991 0 0 0 2.5 1.351v.1a4 4 0 1 0 5.782-3.566zm-1.782 5.566a2 2 0 0 1 -2-2 1.958 1.958 0 0 1 .129-.677 1 1 0 0 0 -.94-1.342h-.044c-.033 0-.114.014-.145.018a2.994 2.994 0 0 1 -2.622-1.579 1.04 1.04 0 0 0 -1.756 0 2.979 2.979 0 0 1 -2.553 1.58c-.037-.005-.136-.015-.173-.016a.988.988 0 0 0 -1 .752 2.984 2.984 0 0 1 -5.79 0 5.15 5.15 0 0 1 -.106-.736 3 3 0 0 1 1.016-2.25l-1.323-1.5a4.994 4.994 0 0 0 -1.685 3.61 3.991 3.991 0 1 1 4.818-4.949 1 1 0 0 0 .784.71.992.992 0 0 0 .983-.391 2.968 2.968 0 0 1 5.029.349 1.04 1.04 0 0 0 1.756 0 2.987 2.987 0 0 1 5.622 1.421 2.931 2.931 0 0 1 -.436 1.528 1 1 0 0 0 .717 1.5 1.993 1.993 0 0 1 -.281 3.972z" fill="url(#linear-gradient-14)"/></g></svg>