<svg height="512" viewBox="0 0 128 128" width="512" xmlns="http://www.w3.org/2000/svg" xmlns:xlink="http://www.w3.org/1999/xlink"><linearGradient id="a" gradientUnits="userSpaceOnUse" x1="122.738" x2="31.013" y1="122.737" y2="31.013"><stop offset="0" stop-color="#46afe0"/><stop offset="1" stop-color="#8ed527"/></linearGradient><path d="m10.75 90.75v-4.083a1.75 1.75 0 0 1 3.5 0v4.083a1.75 1.75 0 0 1 -3.5 0zm83.8-36.878h.084a1.75 1.75 0 0 0 1.666-1.833l-.273-5.709a1.75 1.75 0 1 0 -3.5.167l.273 5.709a1.749 1.749 0 0 0 1.747 1.666zm5.075-43.122a7.759 7.759 0 0 0 -7.75 7.75 1.75 1.75 0 0 0 3.5 0 4.255 4.255 0 0 1 4.25-4.25h5.275a1.75 1.75 0 0 0 0-3.5zm21.875 0h-9.223a1.75 1.75 0 0 0 0 3.5h9.223a1.75 1.75 0 0 0 0-3.5zm-2.41-2.5h2.41a1.75 1.75 0 0 0 0-3.5h-2.41a1.75 1.75 0 0 0 0 3.5zm-31.465 12a1.75 1.75 0 0 0 1.75-1.75 10.261 10.261 0 0 1 10.25-10.25h9.84a1.75 1.75 0 0 0 0-3.5h-9.84a13.765 13.765 0 0 0 -13.75 13.75 1.75 1.75 0 0 0 1.75 1.75zm35.625 95.25v6a1.75 1.75 0 0 1 -1.75 1.75h-115a1.751 1.751 0 0 1 -1.75-1.75v-6a1.751 1.751 0 0 1 1.75-1.75h4.25v-15.917a1.75 1.75 0 0 1 3.5 0v15.917h10.4v-18.25a1.75 1.75 0 0 1 1.75-1.75h12a1.751 1.751 0 0 1 1.75 1.75v18.25h10.41v-48h-36.31v13.417a1.75 1.75 0 0 1 -3.5 0v-13.417h-4.25a1.751 1.751 0 0 1 -1.75-1.75v-6a1.751 1.751 0 0 1 1.75-1.75h51.808a1.751 1.751 0 0 1 1.75 1.75v6a1.751 1.751 0 0 1 -1.75 1.75h-4.248v8.19h23.84l1.066-22.362a1.732 1.732 0 0 1 1.834-1.665 1.75 1.75 0 0 1 1.665 1.832l-1.058 22.2h18.437l-2-42h-14.435l-.488 10.229a1.75 1.75 0 0 1 -1.747 1.667h-.084a1.75 1.75 0 0 1 -1.665-1.841l.487-10.216a1.75 1.75 0 0 1 -1.037-1.6v-6a1.75 1.75 0 0 1 1.75-1.75h20a1.75 1.75 0 0 1 1.75 1.75v6a1.75 1.75 0 0 1 -1.037 1.6l2.01 42.152h12.152a1.75 1.75 0 0 1 1.75 1.75v38.06h4.25a1.75 1.75 0 0 1 1.75 1.754zm-40.875-87.058h16.5v-2.5h-16.5zm-74.125 33.808h48.308v-2.5h-48.308zm19.9 51.5h8.5v-16.5h-8.5zm91.6 3.5h-18.07a1.75 1.75 0 0 1 0-3.5h12.07v-36.31h-59.69v36.31h36.607a1.75 1.75 0 0 1 0 3.5h-82.417v2.5h111.5zm-90.35-28.833a1.75 1.75 0 0 1 -1.75-1.75v-6a1.749 1.749 0 0 1 1.75-1.75h6a1.75 1.75 0 0 1 1.75 1.75v6a1.751 1.751 0 0 1 -1.75 1.75zm1.75-3.5h2.5v-2.5h-2.5zm37.9 7.678v6a1.75 1.75 0 0 1 -1.75 1.75h-6a1.749 1.749 0 0 1 -1.75-1.75v-6a1.75 1.75 0 0 1 1.75-1.75h6a1.751 1.751 0 0 1 1.758 1.755zm-3.5 1.75h-2.5v2.5h2.5zm23.1-1.75v6a1.749 1.749 0 0 1 -1.75 1.75h-6a1.749 1.749 0 0 1 -1.75-1.75v-6a1.75 1.75 0 0 1 1.75-1.75h6a1.75 1.75 0 0 1 1.754 1.755zm-3.5 1.75h-2.5v2.5h2.5zm15.346 6a1.749 1.749 0 0 1 -1.75-1.75v-6a1.75 1.75 0 0 1 1.75-1.75h6a1.75 1.75 0 0 1 1.75 1.75v6a1.749 1.749 0 0 1 -1.75 1.75zm1.75-3.5h2.5v-2.5h-2.5z" fill="url(#a)"/></svg>