<svg height="480pt" viewBox="0 0 480 480" width="480pt" xmlns="http://www.w3.org/2000/svg" xmlns:xlink="http://www.w3.org/1999/xlink"><linearGradient id="a"><stop offset="0" stop-color="#e93e3a"/><stop offset=".35" stop-color="#ed683c"/><stop offset=".7" stop-color="#f3903f"/><stop offset="1" stop-color="#fdc70c"/></linearGradient><linearGradient id="b" gradientUnits="userSpaceOnUse" x1="152" x2="152" xlink:href="#a" y1="482.424" y2="-15.584"/><linearGradient id="c" gradientUnits="userSpaceOnUse" x1="112" x2="112" xlink:href="#a" y1="482.424" y2="-15.584"/><linearGradient id="d" gradientUnits="userSpaceOnUse" x1="256" x2="256" xlink:href="#a" y1="482.424" y2="-15.584"/><linearGradient id="e" gradientUnits="userSpaceOnUse" x1="216" x2="216" xlink:href="#a" y1="482.424" y2="-15.584"/><linearGradient id="f" gradientUnits="userSpaceOnUse" x1="240" x2="240" xlink:href="#a" y1="482.424" y2="-15.584"/><linearGradient id="g" gradientUnits="userSpaceOnUse" x1="280" x2="280" xlink:href="#a" y1="482.424" y2="-15.584"/><linearGradient id="h" gradientUnits="userSpaceOnUse" x1="352" x2="352" xlink:href="#a" y1="482.424" y2="-15.584"/><linearGradient id="i" gradientUnits="userSpaceOnUse" x1="424" x2="424" xlink:href="#a" y1="482.424" y2="-15.584"/><linearGradient id="j" gradientUnits="userSpaceOnUse" x1="288" x2="288" xlink:href="#a" y1="482.424" y2="-15.584"/><path d="m112 80v16h16v-16c0-4.417969 3.582031-8 8-8h32c13.253906 0 24-10.746094 24-24v-16h-16v16c0 4.417969-3.582031 8-8 8h-32c-13.253906 0-24 10.746094-24 24zm0 0" fill="url(#b)"/><path d="m88 48c0-4.417969 3.582031-8 8-8h32c13.253906 0 24-10.746094 24-24v-16h-16v16c0 4.417969-3.582031 8-8 8h-32c-13.253906 0-24 10.746094-24 24v16h16zm0 0" fill="url(#c)"/><path d="m216 152v16h16v-16c0-4.417969 3.582031-8 8-8h32c13.253906 0 24-10.746094 24-24v-16h-16v16c0 4.417969-3.582031 8-8 8h-32c-13.253906 0-24 10.746094-24 24zm0 0" fill="url(#d)"/><path d="m176 120v16h16v-16c0-4.417969 3.582031-8 8-8h32c13.253906 0 24-10.746094 24-24v-16h-16v16c0 4.417969-3.582031 8-8 8h-32c-13.253906 0-24 10.746094-24 24zm0 0" fill="url(#e)"/><path d="m472 304h-74.230469l-14.183593-42.527344c-1.089844-3.265625-4.144532-5.46875-7.585938-5.472656h-48c-4.417969 0-8 3.582031-8 8v40h-18.230469l-14.183593-42.527344c-1.089844-3.265625-4.144532-5.46875-7.585938-5.472656h-16v-64c0-4.417969-3.582031-8-8-8h-96v-64c0-4.417969-3.582031-8-8-8h-112c-4.417969 0-8 3.582031-8 8v79.472656l-31.9296875 239.472656c-.046875.347657-.0703125.703126-.0703125 1.054688v32c0 4.417969 3.582031 8 8 8h464c4.417969 0 8-3.582031 8-8v-160c0-4.417969-3.582031-8-8-8zm-456 136.527344 31.929688-239.472656c.046874-.347657.070312-.703126.070312-1.054688v-72h96v72c0 .351562.023438.707031.070312 1.054688l31.929688 239.472656v23.472656h-160zm208-176.527344v200h-32v-24c0-.351562-.023438-.707031-.070312-1.054688l-31.859376-238.945312h87.929688v56h-16c-4.417969 0-8 3.582031-8 8zm240 200h-224v-192h34.230469l14.183593 42.527344c1.089844 3.265625 4.144532 5.46875 7.585938 5.472656h32c4.417969 0 8-3.582031 8-8v-40h34.230469l14.183593 42.527344c1.089844 3.265625 4.144532 5.46875 7.585938 5.472656h72zm0 0" fill="url(#f)"/><path d="m296 336h-32c-4.417969 0-8 3.582031-8 8v48c0 4.417969 3.582031 8 8 8h32c4.417969 0 8-3.582031 8-8v-48c0-4.417969-3.582031-8-8-8zm-8 48h-16v-32h16zm0 0" fill="url(#g)"/><path d="m368 336h-32c-4.417969 0-8 3.582031-8 8v48c0 4.417969 3.582031 8 8 8h32c4.417969 0 8-3.582031 8-8v-48c0-4.417969-3.582031-8-8-8zm-8 48h-16v-32h16zm0 0" fill="url(#h)"/><path d="m408 400h32c4.417969 0 8-3.582031 8-8v-48c0-4.417969-3.582031-8-8-8h-32c-4.417969 0-8 3.582031-8 8v48c0 4.417969 3.582031 8 8 8zm8-48h16v32h-16zm0 0" fill="url(#i)"/><path d="m280 72h16v16h-16zm0 0" fill="url(#j)"/></svg>