<?xml version="1.0"?>
<svg xmlns="http://www.w3.org/2000/svg" xmlns:xlink="http://www.w3.org/1999/xlink" viewBox="0 0 64 64" width="512" height="512"><defs><linearGradient id="linear-gradient" x1="4.75" y1="66.75" x2="64.783" y2="6.717" gradientUnits="userSpaceOnUse"><stop offset="0" stop-color="#003f8a"/><stop offset="0.518" stop-color="#00d7df"/><stop offset="1" stop-color="#006df0"/></linearGradient><linearGradient id="linear-gradient-2" x1="28.25" y1="90.25" x2="88.283" y2="30.217" xlink:href="#linear-gradient"/><linearGradient id="linear-gradient-3" x1="-3.75" y1="58.25" x2="56.283" y2="-1.783" xlink:href="#linear-gradient"/><linearGradient id="linear-gradient-4" x1="0.75" y1="62.75" x2="60.783" y2="2.717" xlink:href="#linear-gradient"/><linearGradient id="linear-gradient-5" x1="1.25" y1="63.25" x2="61.283" y2="3.217" xlink:href="#linear-gradient"/><linearGradient id="linear-gradient-6" x1="5.75" y1="67.75" x2="65.783" y2="7.717" xlink:href="#linear-gradient"/><linearGradient id="linear-gradient-7" x1="-12.427" y1="49.573" x2="47.606" y2="-10.46" xlink:href="#linear-gradient"/><linearGradient id="linear-gradient-8" x1="8.073" y1="70.073" x2="68.106" y2="10.04" xlink:href="#linear-gradient"/><linearGradient id="linear-gradient-9" x1="15.75" y1="77.75" x2="75.783" y2="17.717" xlink:href="#linear-gradient"/></defs><g id="Castle"><path d="M58,56H52V50.91a5.976,5.976,0,0,0,3.793-9.5A4.953,4.953,0,0,0,54.657,36.6,3.909,3.909,0,0,0,55,35a4,4,0,0,0-8,0,3.909,3.909,0,0,0,.343,1.6,4.955,4.955,0,0,0-1.136,4.809A5.975,5.975,0,0,0,50,50.91v1.222l-1.445-.964a1,1,0,0,0-1.11,1.664L50,54.535V56H43V20h2a1,1,0,0,0,1-1V9a1,1,0,0,0-1-1H39a1,1,0,0,0-1,1v3H36V9a1,1,0,0,0-1-1H29a1,1,0,0,0-1,1v3H26V9a1,1,0,0,0-1-1H19a1,1,0,0,0-1,1V19a1,1,0,0,0,1,1h2V56H15V53.91a5.976,5.976,0,0,0,3.793-9.5A4.953,4.953,0,0,0,17.657,39.6,3.909,3.909,0,0,0,18,38a4,4,0,0,0-8,0,3.909,3.909,0,0,0,.343,1.6,4.953,4.953,0,0,0-1.136,4.808A5.976,5.976,0,0,0,13,53.91V56H2a1,1,0,0,0,0,2H58a1,1,0,0,0,0-2ZM47,45a3.978,3.978,0,0,1,1.077-2.709,1,1,0,0,0,.181-1.084,2.963,2.963,0,0,1,.957-3.6,1,1,0,0,0,.2-1.4A1.975,1.975,0,0,1,49,35a2,2,0,0,1,4,0,1.975,1.975,0,0,1-.414,1.2,1,1,0,0,0,.2,1.4,2.96,2.96,0,0,1,.956,3.6,1,1,0,0,0,.182,1.084A3.969,3.969,0,0,1,52,48.858V46a1,1,0,0,0-2,0v2.858A4,4,0,0,1,47,45ZM10,48a3.978,3.978,0,0,1,1.077-2.709,1,1,0,0,0,.182-1.084,2.96,2.96,0,0,1,.956-3.6,1,1,0,0,0,.2-1.4A1.975,1.975,0,0,1,12,38a2,2,0,0,1,4,0,1.975,1.975,0,0,1-.414,1.2,1,1,0,0,0,.2,1.4,2.96,2.96,0,0,1,.956,3.6,1,1,0,0,0,.182,1.084A3.969,3.969,0,0,1,15,51.858V49a1,1,0,0,0-2,0v2.858A4,4,0,0,1,10,48ZM20,10h4v3a1,1,0,0,0,1,1h4a1,1,0,0,0,1-1V10h4v3a1,1,0,0,0,1,1h4a1,1,0,0,0,1-1V10h4v8H20Zm9,46V45.516a4.919,4.919,0,0,1,6,0V56Zm8,0V45a1,1,0,0,0-.4-.8,7.094,7.094,0,0,0-9.2,0,1,1,0,0,0-.4.8V56H23V20H41V56Z" style="fill:url(#linear-gradient)"/><path d="M62,56H61a1,1,0,0,0,0,2h1a1,1,0,0,0,0-2Z" style="fill:url(#linear-gradient-2)"/><path d="M24.4,23.2a1,1,0,0,0-.4.8v6a1,1,0,0,0,1,1h5a1,1,0,0,0,1-1V24a1,1,0,0,0-.4-.8A4.783,4.783,0,0,0,24.4,23.2ZM29,29H26V24.528a2.641,2.641,0,0,1,3,0Z" style="fill:url(#linear-gradient-3)"/><path d="M33.4,23.2a1,1,0,0,0-.4.8v6a1,1,0,0,0,1,1h5a1,1,0,0,0,1-1V24a1,1,0,0,0-.4-.8A4.783,4.783,0,0,0,33.4,23.2ZM38,29H35V24.528a2.641,2.641,0,0,1,3,0Z" style="fill:url(#linear-gradient-4)"/><path d="M24.4,33.2a1,1,0,0,0-.4.8v6a1,1,0,0,0,1,1h5a1,1,0,0,0,1-1V34a1,1,0,0,0-.4-.8A4.783,4.783,0,0,0,24.4,33.2ZM29,39H26V34.528a2.641,2.641,0,0,1,3,0Z" style="fill:url(#linear-gradient-5)"/><path d="M33.4,33.2a1,1,0,0,0-.4.8v6a1,1,0,0,0,1,1h5a1,1,0,0,0,1-1V34a1,1,0,0,0-.4-.8A4.783,4.783,0,0,0,33.4,33.2ZM38,39H35V34.528a2.641,2.641,0,0,1,3,0Z" style="fill:url(#linear-gradient-6)"/><path d="M7,31h7a.929.929,0,0,0,.5-.145,3.5,3.5,0,0,0-.619-6.834,3.99,3.99,0,0,0-7.344-.994A4,4,0,0,0,7,31Zm-.035-6,.148.016a1,1,0,0,0,1.01-.669A1.992,1.992,0,0,1,12,24.955c0,.024,0,.049-.005.068a1,1,0,0,0,1.2,1.008A1.526,1.526,0,0,1,15,27.5a1.5,1.5,0,0,1-1.2,1.47,1.088,1.088,0,0,0-.112.03H7a2,2,0,0,1-.035-4Z" style="fill:url(#linear-gradient-7)"/><path d="M62,23.5a3.5,3.5,0,0,0-3.122-3.479,3.99,3.99,0,0,0-7.344-.994A4,4,0,0,0,52,27h7a.929.929,0,0,0,.5-.145A3.512,3.512,0,0,0,62,23.5Zm-3.2,1.47a1.088,1.088,0,0,0-.112.03H52a2,2,0,0,1-.035-4l.148.016a.992.992,0,0,0,1.01-.669A1.992,1.992,0,0,1,57,20.955c0,.024,0,.049-.005.068a1,1,0,0,0,1.2,1.008A1.529,1.529,0,0,1,60,23.5,1.5,1.5,0,0,1,58.8,24.97Z" style="fill:url(#linear-gradient-8)"/><path d="M51,44a1,1,0,0,0,1-1V42a1,1,0,0,0-2,0v1A1,1,0,0,0,51,44Z" style="fill:url(#linear-gradient-9)"/></g></svg>
