<?xml version="1.0" encoding="iso-8859-1"?>
<!-- Generator: Adobe Illustrator 19.0.0, SVG Export Plug-In . SVG Version: 6.00 Build 0)  -->
<svg version="1.1" id="Capa_1" xmlns="http://www.w3.org/2000/svg" xmlns:xlink="http://www.w3.org/1999/xlink" x="0px" y="0px"
	 viewBox="0 0 480 480" style="enable-background:new 0 0 480 480;" xml:space="preserve">
<g>
	
		<linearGradient id="SVGID_1_" gradientUnits="userSpaceOnUse" x1="-59.315" y1="579.625" x2="16.765" y2="579.625" gradientTransform="matrix(8 0 0 -8 455 4941)">
		<stop  offset="0" style="stop-color:#E93E3A"/>
		<stop  offset="0.351" style="stop-color:#ED683C"/>
		<stop  offset="0.688" style="stop-color:#F3903F"/>
		<stop  offset="1" style="stop-color:#FDC70C"/>
	</linearGradient>
	<path style="fill:url(#SVGID_1_);" d="M384,256h-48c-4.418,0-8,3.582-8,8v80c0,4.418,3.582,8,8,8h48c4.418,0,8-3.582,8-8v-80
		C392,259.582,388.418,256,384,256z M376,296h-8v-24h8V296z M352,272v24h-8v-24H352z M344,312h8v24h-8V312z M368,336v-24h8v24H368z"
		/>
	
		<linearGradient id="SVGID_2_" gradientUnits="userSpaceOnUse" x1="-59.315" y1="579.625" x2="16.765" y2="579.625" gradientTransform="matrix(8 0 0 -8 455 4941)">
		<stop  offset="0" style="stop-color:#E93E3A"/>
		<stop  offset="0.351" style="stop-color:#ED683C"/>
		<stop  offset="0.688" style="stop-color:#F3903F"/>
		<stop  offset="1" style="stop-color:#FDC70C"/>
	</linearGradient>
	<path style="fill:url(#SVGID_2_);" d="M144,256H96c-4.418,0-8,3.582-8,8v80c0,4.418,3.582,8,8,8h48c4.418,0,8-3.582,8-8v-80
		C152,259.582,148.418,256,144,256z M136,296h-8v-24h8V296z M112,272v24h-8v-24H112z M104,312h8v24h-8V312z M128,336v-24h8v24H128z"
		/>
</g>
<g>
	
		<linearGradient id="SVGID_3_" gradientUnits="userSpaceOnUse" x1="-59.315" y1="599.625" x2="16.765" y2="599.625" gradientTransform="matrix(8 0 0 -8 455 4941)">
		<stop  offset="0" style="stop-color:#E93E3A"/>
		<stop  offset="0.351" style="stop-color:#ED683C"/>
		<stop  offset="0.688" style="stop-color:#F3903F"/>
		<stop  offset="1" style="stop-color:#FDC70C"/>
	</linearGradient>
	<path style="fill:url(#SVGID_3_);" d="M224,184h32c4.418,0,8-3.582,8-8v-64c0-4.418-3.582-8-8-8h-32c-4.418,0-8,3.582-8,8v64
		C216,180.418,219.582,184,224,184z M232,120h16v48h-16V120z"/>
	
		<linearGradient id="SVGID_4_" gradientUnits="userSpaceOnUse" x1="-59.315" y1="587.625" x2="16.765" y2="587.625" gradientTransform="matrix(8 0 0 -8 455 4941)">
		<stop  offset="0" style="stop-color:#E93E3A"/>
		<stop  offset="0.351" style="stop-color:#ED683C"/>
		<stop  offset="0.688" style="stop-color:#F3903F"/>
		<stop  offset="1" style="stop-color:#FDC70C"/>
	</linearGradient>
	<path style="fill:url(#SVGID_4_);" d="M224,280h32c4.418,0,8-3.582,8-8v-64c0-4.418-3.582-8-8-8h-32c-4.418,0-8,3.582-8,8v64
		C216,276.418,219.582,280,224,280z M232,216h16v48h-16V216z"/>
	
		<linearGradient id="SVGID_5_" gradientUnits="userSpaceOnUse" x1="-59.315" y1="577.125" x2="16.765" y2="577.125" gradientTransform="matrix(8 0 0 -8 455 4941)">
		<stop  offset="0" style="stop-color:#E93E3A"/>
		<stop  offset="0.351" style="stop-color:#ED683C"/>
		<stop  offset="0.688" style="stop-color:#F3903F"/>
		<stop  offset="1" style="stop-color:#FDC70C"/>
	</linearGradient>
	<path style="fill:url(#SVGID_5_);" d="M224,352h32c4.418,0,8-3.582,8-8v-40c0-4.418-3.582-8-8-8h-32c-4.418,0-8,3.582-8,8v40
		C216,348.418,219.582,352,224,352z M232,312h16v24h-16V312z"/>
	
		<linearGradient id="SVGID_6_" gradientUnits="userSpaceOnUse" x1="-59.315" y1="587.625" x2="16.765" y2="587.625" gradientTransform="matrix(8 0 0 -8 455 4941)">
		<stop  offset="0" style="stop-color:#E93E3A"/>
		<stop  offset="0.351" style="stop-color:#ED683C"/>
		<stop  offset="0.688" style="stop-color:#F3903F"/>
		<stop  offset="1" style="stop-color:#FDC70C"/>
	</linearGradient>
	<path style="fill:url(#SVGID_6_);" d="M424,464V240h8c4.418,0,8-3.582,8-8v-32c0-4.418-3.582-8-8-8H312V88h8c4.418,0,8-3.582,8-8V8
		c0-4.418-3.582-8-8-8h-32c-4.418,0-8,3.582-8,8v24h-16V8c0-4.418-3.582-8-8-8h-32c-4.418,0-8,3.582-8,8v24h-16V8
		c0-4.418-3.582-8-8-8h-32c-4.418,0-8,3.582-8,8v72c0,4.418,3.582,8,8,8h8v104H48c-4.418,0-8,3.582-8,8v32c0,4.418,3.582,8,8,8h8
		v224H24v16h432v-16H424z M424,208v16H312v-16H424z M168,16h16v24c0,4.418,3.582,8,8,8h32c4.418,0,8-3.582,8-8V16h16v24
		c0,4.418,3.582,8,8,8h32c4.418,0,8-3.582,8-8V16h16v56H168V16z M56,208h112v16H56V208z M72,240h96v224H72V240z M184,88h112v376h-24
		v-88c0-4.418-3.582-8-8-8h-48c-4.418,0-8,3.582-8,8v88h-24V88z M224,464v-80h32v80H224z M312,464V240h96v224H312z"/>
</g>
<g>
</g>
<g>
</g>
<g>
</g>
<g>
</g>
<g>
</g>
<g>
</g>
<g>
</g>
<g>
</g>
<g>
</g>
<g>
</g>
<g>
</g>
<g>
</g>
<g>
</g>
<g>
</g>
<g>
</g>
</svg>
