<svg id="Layer_1" height="512" viewBox="0 0 128 128" width="512" xmlns="http://www.w3.org/2000/svg" xmlns:xlink="http://www.w3.org/1999/xlink" data-name="Layer 1"><linearGradient id="linear-gradient" gradientUnits="userSpaceOnUse" x1="111.154" x2="6.721" y1="126.949" y2="22.516"><stop offset="0" stop-color="#5af0d7"/><stop offset="1" stop-color="#fdcc34"/></linearGradient><path d="m88.833 58.175a1.75 1.75 0 0 1 -1.75 1.75h-.583a1.75 1.75 0 0 1 0-3.5h.583a1.75 1.75 0 0 1 1.75 1.75zm-5.52 0a1.75 1.75 0 0 0 -1.75-1.75h-35.926v-9.508h1.828v5.083a1.75 1.75 0 0 0 3.5 0v-6.833a1.75 1.75 0 0 0 -1.75-1.75h-5.328a1.75 1.75 0 0 0 -1.75 1.75v8.708h-5.887a1.75 1.75 0 0 0 0 3.5h5.887v.8a1.75 1.75 0 0 0 1.75 1.75h37.676a1.75 1.75 0 0 0 1.75-1.75zm-61.851-33.166h3.487v66.158a1.75 1.75 0 0 0 3.5 0v-41.917h4.926a1.75 1.75 0 0 0 0-3.5h-4.926v-20.741h19.859v13.241a1.75 1.75 0 0 0 3.5 0v-13.241h3.645a1.75 1.75 0 0 0 1.75-1.75v-13.009a1.75 1.75 0 0 0 -1.75-1.75h-5.33a1.75 1.75 0 0 0 -1.75 1.75v5.083h-5.5v-5.083a1.75 1.75 0 0 0 -1.75-1.75h-5.33a1.75 1.75 0 0 0 0 3.5h3.579v5.083a1.75 1.75 0 0 0 1.75 1.75h9a1.75 1.75 0 0 0 1.75-1.75v-5.083h1.828v9.509h-30.488v-9.509h1.829v5.083a1.75 1.75 0 0 0 1.75 1.75h9a1.75 1.75 0 0 0 0-3.5h-7.25v-5.083a1.75 1.75 0 0 0 -1.75-1.75h-5.329a1.75 1.75 0 0 0 -1.75 1.75v13.009a1.75 1.75 0 0 0 1.75 1.75zm20.738 16.866h-9.5a1.75 1.75 0 0 1 -1.75-1.75v-5.75a6.5 6.5 0 0 1 13 0v5.75a1.75 1.75 0 0 1 -1.75 1.75zm-1.75-7.5a3 3 0 0 0 -6 0v4h6zm-.079 75.36a1.75 1.75 0 0 1 -1.6 1.888q-2.2.182-4.354.182a47.161 47.161 0 0 1 -22.329-5.565 1.744 1.744 0 0 1 -.191-.106c-.852-.451-1.7-.915-2.546-1.421a1.75 1.75 0 0 1 1.8-3c.669.4 1.341.776 2.014 1.14a34.206 34.206 0 0 0 14.135-6.386c1.209-.887 2.424-1.753 3.651-2.587v-27.018a6.5 6.5 0 0 1 13 0v14.3a1.75 1.75 0 0 1 -3.5 0v-14.3a3 3 0 0 0 -6 0v24.777a37.507 37.507 0 0 1 12.513-4.965v-20.924a1.75 1.75 0 0 1 1.748-1.75h9.168a1.75 1.75 0 0 1 0 3.5h-7.418v18.746a33.072 33.072 0 0 1 8.819.657v-2.5a15.931 15.931 0 0 1 31.861 0v.344h4.358a1.75 1.75 0 0 1 0 3.5h-4.357v6.992a45.983 45.983 0 0 0 8.819-.408v-23.568h-3.587a1.75 1.75 0 0 1 0-3.5h3.587v-7.838h-7.516a1.75 1.75 0 0 1 0-3.5h12.342v-9.508h-1.829v5.083a1.75 1.75 0 0 1 -1.75 1.75h-9a1.75 1.75 0 0 1 -1.752-1.75v-5.083h-1.829v5.083a1.75 1.75 0 0 1 -1.75 1.75h-9a1.75 1.75 0 0 1 -1.751-1.75v-5.083h-1.827v5.083a1.75 1.75 0 0 1 -1.75 1.75h-9a1.75 1.75 0 0 1 -1.75-1.75v-5.083h-1.833v5.083a1.75 1.75 0 0 1 -1.75 1.75h-3.342a1.75 1.75 0 0 1 0-3.5h1.592v-5.083a1.75 1.75 0 0 1 1.75-1.75h5.329a1.75 1.75 0 0 1 1.75 1.75v5.083h5.5v-5.083a1.75 1.75 0 0 1 1.75-1.75h.914v-15.584a1.75 1.75 0 1 1 3.5 0v.042h13.873a1.75 1.75 0 0 1 .846 3.282l-14.717 8.126v4.134h.915a1.75 1.75 0 0 1 1.75 1.75v5.083h5.5v-5.083a1.75 1.75 0 0 1 1.75-1.75h5.329a1.75 1.75 0 0 1 1.75 1.75v5.083h5.5v-5.083a1.75 1.75 0 0 1 1.75-1.75h5.329a1.75 1.75 0 0 1 1.75 1.75v13.008a1.75 1.75 0 0 1 -1.75 1.75h-3.076v34.257a46.012 46.012 0 0 0 13.389-5.471 1.75 1.75 0 0 1 1.8 3c-19.378 11.611-37.648 6.916-52.964.789-16.2-6.477-26.028-.758-36.315 6.786a40.307 40.307 0 0 1 -11.209 5.9 44.053 44.053 0 0 0 20.323 2.944 1.751 1.751 0 0 1 1.887 1.606zm36.592-78.36v3.909l7.081-3.909zm-14.182 56.416c1.36.406 2.756.885 4.2 1.463a81.084 81.084 0 0 0 20.66 5.706v-10.554a12.431 12.431 0 0 0 -24.861 0zm-17.637 19.388-.593.116a1.75 1.75 0 1 0 .654 3.438l.636-.125a1.75 1.75 0 0 0 -.7-3.43zm72.534 8.951c-.077 0-7.575.232-16.976-6.663-10.735-7.872-21.845-14.345-39.685-7.214a102.47 102.47 0 0 1 -11.326 3.85 1.75 1.75 0 1 0 .912 3.379 105.794 105.794 0 0 0 11.713-3.982c16.2-6.476 26.028-.758 36.315 6.786 9.526 6.986 17.438 7.341 18.944 7.341h.246a1.75 1.75 0 0 0 -.145-3.5zm-80.366-16.564a4.088 4.088 0 0 0 -4.083 4.083 1.75 1.75 0 0 0 3.5 0 .583.583 0 1 1 1.166 0 1.75 1.75 0 0 0 3.5 0 4.088 4.088 0 0 0 -4.083-4.083zm14.15-2.833a1.75 1.75 0 0 0 3.5 0 .583.583 0 1 1 1.167 0 1.75 1.75 0 0 0 3.5 0 4.083 4.083 0 1 0 -8.167 0zm29.994 9.684a4.088 4.088 0 0 0 -4.083 4.083 1.75 1.75 0 0 0 3.5 0 .583.583 0 1 1 1.166 0 1.75 1.75 0 0 0 3.5 0 4.088 4.088 0 0 0 -4.082-4.084zm-15.974 1.958a4.088 4.088 0 0 0 -4.084 4.083 1.75 1.75 0 1 0 3.5 0 .583.583 0 1 1 1.167 0 1.75 1.75 0 0 0 3.5 0 4.088 4.088 0 0 0 -4.082-4.084zm37.85-3.287a1.75 1.75 0 0 0 3.5 0 .583.583 0 1 1 1.167 0 1.75 1.75 0 0 0 3.5 0 4.083 4.083 0 1 0 -8.167 0zm-40.082-41.088a1.75 1.75 0 0 0 0 3.5h.75a1.75 1.75 0 0 0 0-3.5zm27.125 7.263h1.071a1.75 1.75 0 0 0 0-3.5h-1.071a1.75 1.75 0 0 0 0 3.5z" fill="url(#linear-gradient)"/></svg>