<svg height="490pt" viewBox="-66 0 490 490.17617" width="490pt" xmlns="http://www.w3.org/2000/svg" xmlns:xlink="http://www.w3.org/1999/xlink"><linearGradient id="lg1"><stop offset="0" stop-color="#00efd1"/><stop offset="1" stop-color="#00acea"/></linearGradient><linearGradient id="linear0" gradientUnits="userSpaceOnUse" x1="179.426085" x2="179.426085" xlink:href="#lg1" y1="4.887173" y2="473.087173"/><linearGradient id="linear1" gradientUnits="userSpaceOnUse" x1="326.845085" x2="326.845085" xlink:href="#lg1" y1="4.887173" y2="473.087173"/><linearGradient id="linear2" gradientUnits="userSpaceOnUse" x1="314.473085" x2="314.473085" xlink:href="#lg1" y1="4.887173" y2="473.087173"/><linearGradient id="linear4" gradientUnits="userSpaceOnUse" x1="32.007085" x2="32.007085" xlink:href="#lg1" y1="4.887173" y2="473.087173"/><linearGradient id="linear5" gradientUnits="userSpaceOnUse" x1="44.379085" x2="44.379085" xlink:href="#lg1" y1="4.887173" y2="473.087173"/><path d="m308.96875 474.175781h-32.390625l-19.046875-310h1.78125c2.101562.070313 4.144531-.707031 5.667969-2.15625 1.527343-1.449219 2.40625-3.449219 2.445312-5.550781v-96.140625c-.019531-.3125-.058593-.621094-.117187-.929687-.007813-.082032-.050782-.164063-.066406-.246094-.03125-.230469-.089844-.457032-.140626-.675782-.019531-.085937-.050781-.167968-.074218-.253906-.0625-.226562-.136719-.453125-.21875-.671875-.023438-.066406-.046875-.132812-.074219-.199219-.226563-.5625-.515625-1.097656-.863281-1.59375-.046875-.070312-.097656-.136718-.152344-.199218-.128906-.171875-.261719-.339844-.40625-.5-.066406-.078125-.132812-.152344-.199219-.222656-.15625-.164063-.320312-.320313-.488281-.472657-.054688-.050781-.109375-.097656-.167969-.152343-.230469-.195313-.476562-.378907-.730469-.546876-.011718-.007812-.019531-.015624-.027343-.019531l-79.890625-52.335937c-2.660156-1.746094-6.105469-1.746094-8.765625 0l-79.886719 52.328125c-.007812.007812-.015625.015625-.027344.019531-.253906.167969-.5.351562-.730468.550781-.058594.046875-.113282.097657-.167969.148438-.167969.152343-.332031.308593-.488281.472656-.070313.070313-.136719.148437-.199219.222656-.144531.164063-.277344.328125-.40625.5-.050781.070313-.101563.132813-.152344.199219-.347656.5-.636719 1.03125-.863281 1.59375-.023438.066406-.046875.132812-.070313.203125-.082031.21875-.15625.441406-.21875.667969-.019531.085937-.042969.167968-.0625.253906-.054687.222656-.09375.449219-.128906.675781-.011719.082031-.085937.164063-.09375.246094-.058594.308594-.097656.617187-.117187.929687v96.140626c.035156 2.105468.914062 4.105468 2.441406 5.554687 1.523437 1.453125 3.566406 2.230469 5.671875 2.160156h1.777343l-19.046874 310h-32.390626c-4.417968 0-8 3.582031-8 8s3.582032 8 8 8h259.085938c4.417969 0 8-3.582031 8-8s-3.582031-8-8-8zm-199.550781-180.636719 59.808593 75.585938-69.882812 88.320312zm70.007812 88.304688 73.058594 92.332031h-146.117187zm80.082031 75.597656-69.882812-88.316406 59.808594-75.585938zm-8.082031-389.265625v33h-144v-33zm0 80h-4v-31h4zm-140-31v31h-4v-31zm16 0h14v31h-14zm30 0h14v31h-14zm30 0h14v31h-14zm30 0h14v31h-14zm-38-99.761719 53.074219 34.761719h-106.144531zm62.078125 146.761719 6.460938 105.289063-68.539063 86.695312-68.539062-86.730468 6.460937-105.253907zm0 0" fill="url(#linear0)"/><path d="m350.765625 88.175781h-47.839844c-4.417969 0-8 3.582031-8 8s3.582031 8 8 8h47.839844c4.417969 0 8-3.582031 8-8s-3.582031-8-8-8zm0 0" fill="url(#linear1)"/><path d="m290.558594 54.960938c1.089844 0 2.164062-.222657 3.164062-.65625l47.835938-20.617188c4.058594-1.75 5.929687-6.457031 4.179687-10.515625-1.746093-4.058594-6.453125-5.929687-10.511719-4.179687l-47.835937 20.621093c-3.492187 1.5-5.445313 5.246094-4.675781 8.964844.769531 3.722656 4.046875 6.386719 7.84375 6.382813zm0 0" fill="url(#linear2)"/><path d="m341.558594 159.207031-47.832032-20.621093c-4.058593-1.75-8.765624.121093-10.515624 4.179687-1.746094 4.058594.125 8.765625 4.179687 10.515625l47.835937 20.617188c4.058594 1.75 8.765626-.121094 10.511719-4.179688 1.75-4.054688-.121093-8.761719-4.179687-10.511719zm0 0" fill="url(#linear2)"/><path d="m63.925781 96.175781c0-4.417969-3.582031-8-8-8h-47.835937c-4.421875 0-8.0000002 3.582031-8.0000002 8s3.5781252 8 8.0000002 8h47.835937c4.417969 0 8-3.582031 8-8zm0 0" fill="url(#linear4)"/><g fill="url(#linear5)"><path d="m17.292969 33.6875 47.832031 20.617188c4.058594 1.75 8.765625-.121094 10.515625-4.179688 1.746094-4.058594-.125-8.765625-4.179687-10.511719l-47.835938-20.621093c-4.054688-1.75-8.761719.121093-10.511719 4.179687s.121094 8.765625 4.179688 10.515625zm0 0"/><path d="m75.644531 142.765625c-1.75-4.058594-6.457031-5.929687-10.515625-4.179687l-47.835937 20.621093c-4.058594 1.75-5.929688 6.457031-4.179688 10.511719 1.75 4.058594 6.457031 5.929688 10.515625 4.179688l47.835938-20.621094c4.054687-1.75 5.925781-6.453125 4.179687-10.511719zm0 0"/></g></svg>