<?xml version="1.0" encoding="UTF-8"?>
<svg xmlns="http://www.w3.org/2000/svg" xmlns:xlink="http://www.w3.org/1999/xlink" id="Gradient" viewBox="0 0 512 512" width="512" height="512"><defs><linearGradient id="linear-gradient" x1="256" y1="496" x2="256" y2="16" gradientUnits="userSpaceOnUse"><stop offset="0" stop-color="#12c2e9"/><stop offset="0.5" stop-color="#c471ed"/><stop offset="1" stop-color="#f64f59"/></linearGradient></defs><path d="M80,128a8,8,0,0,0-8,8V312a8,8,0,0,0,8,8h56V488a8,8,0,0,0,8,8h32a8,8,0,0,0,8-8V448H328v40a8,8,0,0,0,8,8h32a8,8,0,0,0,8-8v-8h48v8a8,8,0,0,0,16,0V264a8,8,0,0,0-8-8H376V64h8a8,8,0,0,0,8-8V24a8,8,0,0,0-8-8H128a8,8,0,0,0-8,8V56a8,8,0,0,0,8,8h8v64Zm280,48H344V144h16ZM328,320H184V304H328Zm-25.888,16L256,359.056,209.888,336Zm-92.224-48L256,264.944,302.112,288ZM184,283.056V228.944L238.112,256ZM209.888,224h92.224L256,247.056ZM184,340.944,238.112,368,184,395.056Zm72,36L302.112,400H209.888ZM273.888,368,328,340.944v54.112Zm0-112L328,228.944v54.112ZM88,208V192H360v16Zm0,48h48v16H88Zm0-16V224h48v16Zm96-96h16v32H184Zm48,32H216V144h16Zm48-32h16v32H280Zm48,32H312V144h16Zm0-48H280V96h48Zm-64,48H248V144h16Zm-32-48H184V96h48Zm-64,48H152V144h16Zm-32,0H120V144h16Zm-32-32v32H88V144ZM88,304V288h48v16Zm64,176V224h16V480Zm32-48V416H328v16Zm176,48H344V224h16Zm64-160v16H376V320Zm0,80H376V384h48Zm0-32H376V352h48Zm-48,48h48v16H376Zm0,32h48v16H376Zm48-144H408V272h16Zm-32-32v32H376V272ZM136,32H376V48H136Zm16,32H360v64H344V88a8,8,0,0,0-8-8H272a8,8,0,0,0-8,8v40H248V88a8,8,0,0,0-8-8H176a8,8,0,0,0-8,8v40H152Z" style="fill:url(#linear-gradient)"/></svg>
