<svg id="_x33_0" enable-background="new 0 0 64 64" height="512" viewBox="0 0 64 64" width="512" xmlns="http://www.w3.org/2000/svg" xmlns:xlink="http://www.w3.org/1999/xlink"><linearGradient id="SVGID_1_" gradientUnits="userSpaceOnUse" x1="32" x2="32" y1="63" y2="1.03"><stop offset="0" stop-color="#9f2fff"/><stop offset="1" stop-color="#0bb1d3"/></linearGradient><path d="m3.227 56.02 3.773 2.515v4.465h50v-4.465l3.773-2.516c1.395-.928 2.227-2.483 2.227-4.16v-13.881c0-2.811-1.913-5.214-4.651-5.847l-6.799-1.569c-.912-.21-1.55-1.012-1.55-1.949v-.877c1.373-.961 2.383-2.4 2.792-4.075l1.195-.239c1.745-.349 3.013-1.894 3.013-3.674 0-1.367-.728-2.575-1.846-3.23 1.142-.688 1.846-1.905 1.846-3.255 0-1.087-.466-2.125-1.279-2.849l-7.309-6.496c-1.332-1.184-3.493-1.183-4.823 0l-3.464 3.078-5.713-5.078c-1.332-1.184-3.493-1.183-4.823 0l-5.714 5.078-3.463-3.078c-1.332-1.184-3.493-1.183-4.823 0l-7.311 6.497c-.812.722-1.278 1.761-1.278 2.848 0 1.35.704 2.567 1.846 3.255-1.118.655-1.846 1.863-1.846 3.23 0 1.78 1.268 3.326 3.013 3.675l1.195.239c.41 1.675 1.419 3.114 2.792 4.075v.877c0 .937-.638 1.738-1.55 1.949l-6.799 1.569c-2.738.631-4.651 3.035-4.651 5.846v13.882c0 1.676.832 3.231 2.227 4.16zm18.773-27.407v-.877c1.811-1.267 3-3.364 3-5.736v-.38l.208.042c.41 1.675 1.419 3.114 2.792 4.075v.877c0 .937-.638 1.738-1.55 1.949l-4.216.973c-.148-.284-.234-.597-.234-.923zm-.92-11.613h-9.08c-.552 0-1-.449-1-1v-1h11.209c-.568.525-.971 1.217-1.129 2zm9.92-7c0-.551.448-1 1-1s1 .449 1 1-.448 1-1 1-1-.449-1-1zm8 3v1c0 .551-.448 1-1 1h-12c-.552 0-1-.449-1-1v-1zm13 4h-9.08c-.158-.783-.561-1.475-1.13-2h11.21v1c0 .551-.448 1-1 1zm-11.964-.81c.577.289.964.879.964 1.558 0 .83-.591 1.551-1.405 1.714l-.595.118v-2.765c.388-.138.74-.349 1.036-.625zm8.964 33.669v-2.859h6v4h-6.136c.087-.37.136-.751.136-1.141zm6-4.859h-6v-4c2.206 0 4-1.794 4-4v-4.05l2 .461zm-4-12.325v4.325c0 1.103-.897 2-2 2v-3.022c0-.553-.094-1.083-.234-1.595.862-.398 1.615-.986 2.234-1.708zm-3.12 20.325h7.12v4h-12v-.465l3.773-2.516c.427-.284.794-.632 1.107-1.019zm-22.88-22.05v4.05c0 2.206 1.794 4 4 4v1c0 1.302.839 2.402 2 2.816v2.184h-8v-13.589zm2-13.95h10v3c0 2.757-2.243 5-5 5s-5-2.243-5-5zm5 10c.697 0 1.369-.106 2.005-.296.023.986.412 1.921 1.074 2.633-.037.165-.055.336-.064.509-.833.726-1.905 1.154-3.015 1.154-1.266 0-2.453-.523-3.313-1.418.795-.718 1.28-1.746 1.305-2.879.637.191 1.31.297 2.008.297zm-9 28v-8h4v8zm6-8h2v8h-2zm4 0h2v8h-2zm-6-16.289c1.247 1.446 3.063 2.289 5 2.289 1.047 0 2.076-.26 3-.73v4.73h-6c-1.103 0-2-.897-2-2zm6 8.289v1c0 .551-.448 1-1 1s-1-.449-1-1v-1zm0 3.816c1.161-.414 2-1.514 2-2.816v-1c.061 0 .119-.012.18-.015.409 1.169 1.513 2.015 2.82 2.015h3v4h-8zm4 4.184h4v8h-4zm5-8h-4c-.552 0-1-.449-1-1v-1h4v-2h-4v-2h6v5c0 .551-.448 1-1 1zm1-8h-6v-1c0-.551.448-1 1-1h4c.552 0 1 .449 1 1zm-20 26h18v4h-18zm24-7.141c0 1.006-.499 1.938-1.336 2.496l-2.664 1.777v-4.596l2.555-1.703-1.109-1.664-1.446.963v-6.316c1.161-.414 2-1.514 2-2.816v-5.477c1.213.698 2 1.989 2 3.455zm-9-22.859c-.654 0-1.255.216-1.748.572-.16-.291-.252-.619-.252-.959v-.877c1.373-.961 2.383-2.4 2.792-4.075l.208-.041v.38c0 1.958.81 3.728 2.111 5zm-13-7.42-.595-.119c-.814-.163-1.405-.883-1.405-1.713 0-.678.386-1.268.964-1.558.296.276.648.487 1.036.626zm-4 27.552-1.445-.964-1.109 1.664 2.554 1.703v4.596l-2.664-1.776c-.837-.557-1.336-1.49-1.336-2.496v-13.881c0-1.874 1.275-3.477 3.101-3.897l.899-.208zm-3.773 6.888 3.773 2.515v.465h-12v-4h7.12c.313.387.68.735 1.107 1.02zm-2.091-3.02h-6.136v-4h6v2.859c0 .39.049.771.136 1.141zm-.136-15.022v3.022c-1.103 0-2-.897-2-2v-4.325c.619.722 1.372 1.31 2.234 1.708-.14.511-.234 1.041-.234 1.595zm0 5.022v4h-6v-11.589l2-.461v4.05c0 2.206 1.794 4 4 4zm-6 18h12v2h-12zm34 2v-2h12v2zm18-23.022v13.882c0 1.006-.499 1.938-1.336 2.496l-2.664 1.776v-4.596l2.555-1.703-1.109-1.664-1.446.963v-15.259l.899.208c1.826.42 3.101 2.023 3.101 3.897zm-11.681-6.39c-.398.413-.873.743-1.394.984-.702-1.016-1.709-1.802-2.924-2.231v-1.421c.328.047.66.08 1 .08.698 0 1.371-.106 2.008-.297.024 1.136.511 2.167 1.31 2.885zm-3.319-4.588c-.342 0-.677-.035-1-.101v-5.899h-2v4.974c-1.207-.914-2-2.348-2-3.974v-.952c.827-.44 1.467-1.169 1.781-2.048h8.219v3c0 2.757-2.243 5-5 5zm7.595-5.539-.595.119v-2.765c.389-.139.74-.35 1.036-.626.578.29.964.88.964 1.559 0 .83-.591 1.55-1.405 1.713zm-8.677-16.049c.596-.531 1.567-.532 2.165 0l7.309 6.496c.386.344.608.838.608 1.355 0 .303-.085.587-.221.843-.329-.653-.999-1.106-1.779-1.106h-10.425c.27-.527.425-1.117.425-1.737 0-1.087-.466-2.125-1.279-2.849l-.09-.08zm-14-2c.596-.531 1.567-.532 2.165 0l7.309 6.496c.386.344.608.838.608 1.355 0 .303-.085.587-.221.843-.329-.653-.999-1.106-1.779-1.106h-4.184c.112-.314.184-.648.184-1 0-1.654-1.346-3-3-3s-3 1.346-3 3c0 .352.072.686.184 1h-4.184c-.78 0-1.45.453-1.779 1.106-.136-.256-.221-.54-.221-.843 0-.517.222-1.011.607-1.354zm-21.311 8.497 7.311-6.497c.596-.531 1.567-.532 2.165 0l3.286 2.921-.091.081c-.812.723-1.278 1.762-1.278 2.849 0 .62.155 1.21.425 1.737h-10.425c-.78 0-1.45.453-1.779 1.106-.136-.256-.221-.54-.221-.843 0-.517.222-1.011.607-1.354zm-.607 7.839c0-.678.386-1.268.964-1.558.296.276.648.487 1.036.626v2.765l-.595-.119c-.814-.164-1.405-.884-1.405-1.714zm4 2.252v-3h8.219c.314.879.954 1.607 1.781 2.048v.952c0 2.757-2.243 5-5 5s-5-2.243-5-5zm5 7c.698 0 1.372-.106 2.008-.297.01.445.093.879.244 1.289l-.601.139c-1.508.348-2.75 1.245-3.576 2.441-.522-.24-.996-.57-1.394-.984.798-.718 1.286-1.749 1.311-2.885.637.191 1.31.297 2.008.297zm-15 8.978c0-1.874 1.275-3.477 3.101-3.897l.899-.208v15.259l-1.445-.964-1.109 1.664 2.554 1.703v4.596l-2.664-1.776c-.837-.557-1.336-1.49-1.336-2.496z" fill="url(#SVGID_1_)"/></svg>