<svg height="496pt" viewBox="0 0 496 496" width="496pt" xmlns="http://www.w3.org/2000/svg" xmlns:xlink="http://www.w3.org/1999/xlink"><linearGradient id="a" gradientUnits="userSpaceOnUse" x1="248" x2="248" y1="496" y2="0"><stop offset="0" stop-color="#9f2fff"/><stop offset="1" stop-color="#0bb1d3"/></linearGradient><path d="m208 400h48v16h-48zm-128 14.113281v-14.113281h48v14.113281c0 14.078125-7.824219 26.742188-20.425781 33.039063l-3.574219 1.792968-3.574219-1.792968c-12.601562-6.296875-20.425781-18.960938-20.425781-33.039063zm16.078125 1.886719c.515625 5.808594 3.394531 11.046875 7.921875 14.585938 4.527344-3.539063 7.398438-8.785157 7.921875-14.585938zm31.921875-232c4.414062 0 8-3.585938 8-8s-3.585938-8-8-8-8 3.585938-8 8 3.585938 8 8 8zm80 0c4.414062 0 8-3.585938 8-8s-3.585938-8-8-8-8 3.585938-8 8 3.585938 8 8 8zm-40 64c17.648438 0 32-14.351562 32-32h-16c0 8.824219-7.175781 16-16 16s-16-7.175781-16-16h-16c0 17.648438 14.351562 32 32 32zm296-56h-28.449219c2.753907 4.726562 4.449219 10.144531 4.449219 16v16c0 9.601562-4.335938 18.128906-11.054688 24 6.71875 5.871094 11.054688 14.398438 11.054688 24v16c0 5.855469-1.695312 11.273438-4.449219 16h28.449219v36.230469c20.382812 16.808593 32 41.289062 32 67.769531 0 48.519531-39.480469 88-88 88-29.761719 0-56.0625-14.886719-72-37.558594v37.558594h-336v-128.34375c0-15.230469 6.246094-29.335938 16.648438-39.65625h-.648438c-8.824219 0-16-7.175781-16-16v-16c0-8.824219 7.175781-16 16-16h96v-12.167969c-13.6875-11.320312-23.824219-26.726562-28.710938-44.304687-19.816406-2.367188-35.289062-19.085938-35.289062-39.527344v-61.574219l-10.089844-15.136719c-3.871094-5.800781-5.910156-12.554687-5.910156-19.519531 0-12.59375 6.792969-24.289062 17.726562-30.539062l84.417969-48.238281c20.574219-11.769532 47.144531-11.769532 67.71875 0l84.417969 48.238281c10.925781 6.25 17.71875 17.953125 17.71875 30.539062 0 6.964844-2.039062 13.710938-5.902344 19.511719l-10.097656 15.144531v61.574219c0 20.441406-15.472656 37.160156-35.289062 39.519531-4.886719 17.578125-15.023438 32.984375-28.710938 44.304688v12.175781h96c8.824219 0 16 7.175781 16 16v16c0 8.824219-7.175781 16-16 16h-.640625c8.328125 8.265625 13.992187 18.945312 15.886719 30.726562 4.648437-6.804687 10.195312-13.085937 16.753906-18.496093v-36.230469h28.449219c-2.753907-4.726562-4.449219-10.144531-4.449219-16v-16c0-9.601562 4.335938-18.128906 11.054688-24-6.71875-5.871094-11.054688-14.398438-11.054688-24v-16c0-5.855469 1.695312-11.273438 4.449219-16h-28.449219v-36.230469c-20.382812-16.808593-32-41.289062-32-67.769531 0-48.519531 39.480469-88 88-88s88 39.480469 88 88c0 26.488281-11.617188 50.960938-32 67.769531zm-174.976562 136h-52.671876l-16.167968 53.894531-18.488282-15.40625-9.550781 19.113281 7.261719 94.398438h72.59375v-112h16v40h32v-40.34375c0-16.023438-9.511719-30.457031-24.238281-36.769531zm-198.976563-32h-10.046875v16h14.847656zm-26.046875 16v-16h-16v16zm42.753906-16 17.429688 58.105469 31.320312-26.105469-38.398437-32zm40.175782 59.96875 10.015624 20.03125h22.109376l10.015624-20.03125-21.070312-17.554688zm33.566406-27.96875 31.320312 26.105469 17.429688-58.105469h-10.351563zm107.503906-16v-16h-16v16zm-32-16h-10.046875l-4.800781 16h14.847656zm-103.359375 184h30.71875l-6.765625-88h-17.1875zm167.359375-184h-16v16h16zm-152-194.335938c15.128906-13.566406 24-33.199218 24-53.664062h-48c0 20.464844 8.871094 40.097656 24 53.664062zm-69.328125 26.335938c8.113281 12.519531 34.320313 24 69.328125 24s61.207031-11.480469 69.328125-24zm173.328125 0h-16v16.808594c5.945312 1.214844 11.328125 3.855468 16 7.390625zm0 56c0-10.414062-6.710938-19.214844-16-22.527344v38.527344c0 2.238281-.167969 4.433594-.335938 6.632812 9.464844-3.21875 16.335938-12.097656 16.335938-22.632812zm-222.175781-104h54.175781v16h-53.921875c.386719.800781.640625 1.664062 1.136719 2.40625l9.066406 13.59375h95.367188c-5.089844-4.808594-9.558594-10.183594-13.335938-16h-22.3125v-16h14.175781c-3.96875-10.113281-6.175781-20.9375-6.175781-32 0-8.824219 7.175781-16 16-16h48c8.824219 0 16 7.175781 16 16 0 11.0625-2.207031 21.886719-6.175781 32h14.175781v16h-22.304688c-3.773437 5.816406-8.253906 11.191406-13.335937 16h95.367187l9.066407-13.59375c.488281-.742188.742187-1.605469 1.128906-2.40625h-53.921875v-16h54.175781c-1.640625-3.648438-4.265625-6.832031-7.839843-8.878906l-84.414063-48.242188c-15.761719-9.007812-36.089844-9.007812-51.84375 0l-84.414063 48.242188c-3.574218 2.046875-6.199218 5.230468-7.839843 8.878906zm14.175781 48v24.207031c4.671875-3.535156 10.054688-6.183593 16-7.390625v-16.816406zm16.335938 78.632812c-.167969-2.199218-.335938-4.394531-.335938-6.632812v-38.527344c-9.289062 3.3125-16 12.113282-16 22.527344 0 10.535156 6.871094 19.414062 16.335938 22.632812zm87.664062 65.367188c39.695312 0 72-32.304688 72-72v-52.128906c-15.792969 12.25-41.871094 20.128906-72 20.128906s-56.207031-7.878906-72-20.128906v52.128906c0 39.695312 32.304688 72 72 72zm-40 6.289062v5.96875l40 33.335938 40-33.335938v-5.96875c-12.015625 6.160157-25.59375 9.710938-40 9.710938s-27.984375-3.550781-40-9.710938zm-112 33.710938h16v-16h-16zm0 55.65625v40.34375h32v-40h16v112h72.59375l7.261719-94.398438-9.550781-19.105468-18.488282 15.40625-16.167968-53.902344h-52.679688l-6.730469 2.878906c-14.726562 6.320313-24.238281 20.753906-24.238281 36.777344zm0 112.34375h32v-56h-32zm304 0v-56h-32v56zm128-131.894531v-28.105469h-80v28.105469l-3.191406 2.398437c-18.3125 13.777344-28.808594 34.734375-28.808594 57.496094 0 39.695312 32.304688 72 72 72s72-32.304688 72-72c0-22.761719-10.496094-43.71875-28.808594-57.503906zm-40-92.105469c-8.824219 0-16 7.175781-16 16v16c0 8.824219 7.175781 16 16 16s16-7.175781 16-16v-16c0-8.824219-7.175781-16-16-16zm0-64c-8.824219 0-16 7.175781-16 16v16c0 8.824219 7.175781 16 16 16s16-7.175781 16-16v-16c0-8.824219-7.175781-16-16-16zm72-104c0-39.695312-32.304688-72-72-72s-72 32.304688-72 72c0 22.761719 10.496094 43.71875 28.808594 57.503906l3.191406 2.398438v28.097656h80v-28.105469l3.191406-2.398437c18.3125-13.777344 28.808594-34.734375 28.808594-57.496094zm-16 0c0 30.878906-25.121094 56-56 56s-56-25.121094-56-56 25.121094-56 56-56 56 25.121094 56 56zm-16 0c0-22.054688-17.945312-40-40-40s-40 17.945312-40 40 17.945312 40 40 40 40-17.945312 40-40zm16 320c0 30.878906-25.121094 56-56 56s-56-25.121094-56-56 25.121094-56 56-56 56 25.121094 56 56zm-16 0c0-22.054688-17.945312-40-40-40s-40 17.945312-40 40 17.945312 40 40 40 40-17.945312 40-40zm0 0" fill="url(#a)"/></svg>