<svg height="512" viewBox="0 0 128 128" width="512" xmlns="http://www.w3.org/2000/svg" xmlns:xlink="http://www.w3.org/1999/xlink"><linearGradient id="a" gradientUnits="userSpaceOnUse" x1="107.258" x2="20.764" y1="120.217" y2="33.722"><stop offset="0" stop-color="#33d9f8"/><stop offset="1" stop-color="#a5e23b"/></linearGradient><path d="m94.219 71.469-14.619-2.841-5.059-3.9v-4.5a30.876 30.876 0 0 0 9.291-12.859l3.088-.469a6.75 6.75 0 0 0 5.7-5.987l.247-2.408a5.25 5.25 0 0 0 -5.223-5.785h-1.544v-2.031c2.937-.853 6.816-3.105 6.816-7.536 0-7.651-14.3-17.9-28.918-17.9a33.829 33.829 0 0 0 -4.215.268 1.75 1.75 0 0 0 .436 3.472c15.5-1.947 29.2 8.863 29.2 14.163 0 2.883-3.505 3.992-4.83 4.308a49.718 49.718 0 0 0 -20.589-4.216 49.685 49.685 0 0 0 -20.593 4.216c-1.324-.309-4.825-1.4-4.825-4.311 0-1.266.886-2.992 2.431-4.735a1.75 1.75 0 1 0 -2.619-2.318c-2.167 2.445-3.312 4.885-3.312 7.057 0 4.431 3.879 6.683 6.816 7.536v2.028h-1.543a5.25 5.25 0 0 0 -5.223 5.779l.247 2.407a6.75 6.75 0 0 0 5.7 5.988l3.086.468a30.876 30.876 0 0 0 9.291 12.859v4.5l-5.059 3.9-14.616 2.847a14.275 14.275 0 0 0 -11.531 13.988v35.543a1.75 1.75 0 0 0 3.5 0v-10.9a10.289 10.289 0 0 0 6.183-4.2 7.155 7.155 0 0 0 .648-6.957 7.307 7.307 0 0 1 .167-6.856 1.75 1.75 0 0 0 -1.422-2.77h-5.576v-3.86a10.77 10.77 0 0 1 8.7-10.553l13.707-2.664 6.4 13.078a1.752 1.752 0 0 0 1.251.952 1.822 1.822 0 0 0 .32.029 1.75 1.75 0 0 0 1.189-.466l1.239-1.147 1.176 2.123-2.722 28.467a1.751 1.751 0 0 0 .47 1.369l5.245 5.556a1.75 1.75 0 0 0 2.546 0l5.245-5.556a1.751 1.751 0 0 0 .47-1.369l-.721-7.536a1.75 1.75 0 0 0 -3.484.334l.645 6.745-3.426 3.632-3.428-3.632 2.547-26.634h1.762l1.011 10.567a1.75 1.75 0 0 0 1.74 1.583c.056 0 .112 0 .168-.008a1.75 1.75 0 0 0 1.576-1.909l-1.11-11.609 1.176-2.123 1.239 1.147a1.75 1.75 0 0 0 1.189.466 1.822 1.822 0 0 0 .32-.029 1.752 1.752 0 0 0 1.251-.952l6.4-13.078 13.71 2.66a10.77 10.77 0 0 1 8.7 10.553v3.857h-5.577a1.757 1.757 0 0 0 -1.433 2.754 7.3 7.3 0 0 1 .178 6.872 7.155 7.155 0 0 0 .648 6.957 10.289 10.289 0 0 0 6.183 4.2v10.907a1.75 1.75 0 0 0 3.5 0v-35.543a14.275 14.275 0 0 0 -11.531-13.988zm-65.525 21.345a11.345 11.345 0 0 0 .673 7.512 3.664 3.664 0 0 1 -.358 3.648 6.8 6.8 0 0 1 -3.259 2.493v-13.653zm35.306-18.459-7.042-9.355v-2.369a15.268 15.268 0 0 0 14.084 0v2.369zm24.945-37.561a1.732 1.732 0 0 1 .442 1.351l-.247 2.409a3.25 3.25 0 0 1 -2.746 2.881l-1.386.211a36.759 36.759 0 0 0 1.04-7.429h1.6a1.733 1.733 0 0 1 1.297.577zm-24.945-10.046a48.513 48.513 0 0 1 17.419 3.167 8.2 8.2 0 0 1 -5.072 2.327c-2.58.217-6.816.475-12.347.475s-9.765-.258-12.345-.475a8.206 8.206 0 0 1 -5.074-2.327 48.5 48.5 0 0 1 17.419-3.167zm-22.394 16.687a3.25 3.25 0 0 1 -2.746-2.882l-.247-2.408a1.75 1.75 0 0 1 1.742-1.928h1.6a36.759 36.759 0 0 0 1.04 7.429zm3.794-8.968v-.982a11.677 11.677 0 0 0 5.964 2.245c2.647.222 6.988.487 12.638.487s9.993-.265 12.64-.487a11.673 11.673 0 0 0 5.958-2.245v.982c0 12.833-6.276 20.159-11.542 24.044a11.833 11.833 0 0 1 -14.12 0c-5.264-3.885-11.538-11.211-11.538-24.044zm5.939 36.313 3.535-2.724 6.777 9-4.983 4.612zm14.1 13.905h-2.88l-1.359-2.447 2.8-2.589 2.8 2.589zm5.891-3.018-4.983-4.612 6.777-9 3.535 2.724zm27.659 22.307a3.664 3.664 0 0 1 -.358-3.648 11.345 11.345 0 0 0 .673-7.512h2.944v13.653a6.8 6.8 0 0 1 -3.257-2.493zm-53.704-91.421a1.751 1.751 0 0 1 .654-2.388 38.019 38.019 0 0 1 4.251-2.08 1.75 1.75 0 1 1 1.341 3.232 34.561 34.561 0 0 0 -3.859 1.889 1.752 1.752 0 0 1 -2.387-.653z" fill="url(#a)"/></svg>