<svg height="480pt" viewBox="-31 0 479 480" width="480pt" xmlns="http://www.w3.org/2000/svg" xmlns:xlink="http://www.w3.org/1999/xlink"><linearGradient id="a" gradientUnits="userSpaceOnUse" x1="208.5" x2="208.5" y1="484.208" y2="-10.224"><stop offset="0" stop-color="#e93e3a"/><stop offset=".35" stop-color="#ed683c"/><stop offset=".7" stop-color="#f3903f"/><stop offset="1" stop-color="#fdc70c"/></linearGradient><g fill="url(#a)"><path d="m408.5 208h-88v-72c0-4.417969-3.582031-8-8-8h-16v-40c0-1.730469-.5625-3.414062-1.601562-4.800781l-22.398438-29.863281v-45.335938c0-4.417969-3.582031-8-8-8h-120c-4.417969 0-8 3.582031-8 8v46.113281l-15.160156 30.3125c-.554688 1.109375-.839844 2.332031-.839844 3.574219v40h-16c-4.417969 0-8 3.582031-8 8v72h-88c-4.417969 0-8 3.582031-8 8v240c0 13.253906 10.746094 24 24 24h368c13.253906 0 24-10.746094 24-24v-240c0-4.417969-3.582031-8-8-8zm-104-48h-40v-1.367188c5.988281 2.117188 12.574219 1.765626 18.300781-.980468 5.726563-2.746094 10.125-7.65625 12.226563-13.652344h9.472656zm-152-144h104v32h-104zm-16 73.886719 12.945312-25.886719h111.054688l20 26.664062v45.335938c0 4.417969-3.582031 8-8 8s-8-3.582031-8-8v-16c0-4.417969-3.582031-8-8-8s-8 3.582031-8 8v48c0 4.417969-3.582031 8-8 8s-8-3.582031-8-8v-24c0-4.417969-3.582031-8-8-8s-8 3.582031-8 8v24c0 4.417969-3.582031 8-8 8s-8-3.582031-8-8v-24c0-4.417969-3.582031-8-8-8s-8 3.582031-8 8v24c0 4.417969-3.582031 8-8 8s-8-3.582031-8-8v-24c0-4.417969-3.582031-8-8-8s-8 3.582031-8 8v24c0 4.417969-3.582031 8-8 8s-8-3.582031-8-8zm-24 54.113281h8v16h-8zm0 32h9.472656c2.636719 7.546875 8.875 13.269531 16.621094 15.253906 7.742188 1.984375 15.964844-.035156 21.90625-5.382812 9.101562 8.171875 22.898438 8.171875 32 0 9.101562 8.171875 22.898438 8.171875 32 0 5.941406 5.347656 14.164062 7.367187 21.90625 5.382812 7.746094-1.984375 13.984375-7.707031 16.621094-15.253906h41.472656v32h-192zm-96 48h384v84.6875l-27.3125 27.3125h-329.375l-27.3125-27.3125zm376 240h-368c-4.417969 0-8-3.582031-8-8v-124.6875l18.34375 18.34375c1.5 1.5 3.535156 2.34375 5.65625 2.34375h336c2.121094 0 4.15625-.84375 5.65625-2.34375l18.34375-18.34375v124.6875c0 4.417969-3.582031 8-8 8zm0 0"/><path d="m184.5 304h48v16h-48zm0 0"/></g></svg>